<?xml version="1.0" encoding="UTF-8" standalone="no"?><!DOCTYPE svg PUBLIC "-//W3C//DTD SVG 1.1//EN" "http://www.w3.org/Graphics/SVG/1.1/DTD/svg11.dtd"><svg width="100%" height="100%" viewBox="0 0 2001 2001" version="1.1" xmlns="http://www.w3.org/2000/svg" xmlns:xlink="http://www.w3.org/1999/xlink" xml:space="preserve" xmlns:serif="http://www.serif.com/" style="fill-rule:evenodd;clip-rule:evenodd;stroke-linejoin:round;stroke-miterlimit:2;"><rect id="Primary-Logo-with-Tag-White" serif:id="Primary Logo with Tag White" x="0.914" y="0.839" width="2000" height="2000" style="fill:none;"/><g id="Primary-with-Tag-WHITE" serif:id="Primary with Tag WHITE"><g><path d="M619.796,906.564l-10.359,1001.22l348.137,-645.792l8.761,-1168.09l-346.539,812.668Z" style="fill:url(#_Linear1);"/><g><path d="M521.518,868.122c35.527,0 55.598,-17.764 55.598,-46.371c0,-30.452 -28.376,-38.527 -53.061,-44.294c-21.916,-4.845 -40.142,-8.998 -40.142,-27.685c0,-16.379 13.381,-26.992 35.298,-26.992c20.532,0 34.835,9.228 40.141,31.145l17.072,-4.614c-6.459,-29.76 -29.068,-42.449 -57.213,-42.449c-32.991,0 -54.215,17.533 -54.215,43.372c-0,30.914 27.453,38.296 51.908,44.294c21.685,5.076 41.295,9.228 41.295,29.069c-0,17.302 -13.381,28.145 -35.759,28.145c-24.454,0 -41.064,-12.458 -44.525,-34.143l-18.456,4.383c4.845,29.068 27.684,46.14 62.059,46.14Z" style="fill:#fff;fill-rule:nonzero;"/><path d="M671.704,868.122c46.14,0 77.977,-32.759 77.977,-80.745c-0,-47.755 -31.837,-80.515 -77.977,-80.515c-45.91,0 -77.977,32.76 -77.977,80.515c-0,47.986 32.067,80.745 77.977,80.745Zm-0,-17.764c-34.836,0 -59.06,-25.146 -59.06,-62.981c0,-37.605 24.224,-62.982 59.06,-62.982c35.066,0 59.059,25.377 59.059,62.982c0,37.835 -23.993,62.981 -59.059,62.981Z" style="fill:#fff;fill-rule:nonzero;"/><path d="M843.576,868.122c31.837,0 56.983,-15.918 68.98,-41.295l-17.764,-6.691c-9.228,18.918 -27.915,30.222 -51.216,30.222c-34.836,0 -59.059,-25.146 -59.059,-62.981c-0,-37.605 24.223,-62.982 59.059,-62.982c29.991,0 50.293,18.226 56.522,43.372l18.225,-4.614c-8.536,-34.144 -36.912,-56.291 -74.747,-56.291c-45.909,0 -77.977,32.76 -77.977,80.515c0,47.986 32.068,80.745 77.977,80.745Z" style="fill:#fff;fill-rule:nonzero;"/><rect x="940.701" y="709.63" width="18.917" height="155.723" style="fill:#fff;fill-rule:nonzero;"/><path d="M1118.57,865.354l-59.752,-155.724l-24.224,0l-59.52,155.724l20.071,-0l14.303,-37.835l74.747,-0l14.304,37.835l20.071,-0Zm-71.748,-137.037l31.144,82.822l-62.52,-0l31.376,-82.822Z" style="fill:#fff;fill-rule:nonzero;"/><path d="M1234.38,865.354l-0,-16.842l-81.438,0l0,-138.882l-18.917,0l-0,155.724l100.355,-0Z" style="fill:#fff;fill-rule:nonzero;"/><path d="M518.288,1028.61l-45.218,-122.041l-32.529,0l0,155.723l18.918,0l-0,-144.88l51.908,144.88l13.842,0l52.138,-146.033l0,146.033l18.918,0l-0,-155.723l-32.76,0l-45.217,122.041Z" style="fill:#fff;fill-rule:nonzero;"/><rect x="619.796" y="906.564" width="18.917" height="155.723" style="fill:#fff;fill-rule:nonzero;"/><path d="M721.305,1065.06c35.528,-0 55.598,-17.764 55.598,-46.371c0,-30.453 -28.376,-38.527 -53.061,-44.295c-21.916,-4.845 -40.142,-8.997 -40.142,-27.684c0,-16.38 13.381,-26.992 35.298,-26.992c20.532,0 34.835,9.228 40.142,31.145l17.071,-4.614c-6.459,-29.761 -29.068,-42.449 -57.213,-42.449c-32.991,-0 -54.215,17.533 -54.215,43.371c-0,30.914 27.453,38.297 51.908,44.295c21.685,5.076 41.295,9.228 41.295,29.068c0,17.303 -13.381,28.146 -35.759,28.146c-24.454,-0 -41.064,-12.458 -44.525,-34.144l-18.456,4.383c4.845,29.069 27.684,46.141 62.059,46.141Z" style="fill:#fff;fill-rule:nonzero;"/><path d="M853.727,1065.06c35.528,-0 55.599,-17.764 55.599,-46.371c-0,-30.453 -28.376,-38.527 -53.061,-44.295c-21.917,-4.845 -40.142,-8.997 -40.142,-27.684c-0,-16.38 13.38,-26.992 35.297,-26.992c20.532,0 34.836,9.228 40.142,31.145l17.072,-4.614c-6.46,-29.761 -29.069,-42.449 -57.214,-42.449c-32.99,-0 -54.215,17.533 -54.215,43.371c0,30.914 27.454,38.297 51.908,44.295c21.686,5.076 41.295,9.228 41.295,29.068c0,17.303 -13.38,28.146 -35.758,28.146c-24.455,-0 -41.065,-12.458 -44.526,-34.144l-18.456,4.383c4.845,29.069 27.684,46.141 62.059,46.141Z" style="fill:#fff;fill-rule:nonzero;"/><rect x="939.317" y="906.564" width="18.917" height="155.723" style="fill:#fff;fill-rule:nonzero;"/><path d="M1058.59,1065.06c46.141,-0 77.977,-32.76 77.977,-80.746c0,-47.755 -31.836,-80.514 -77.977,-80.514c-45.909,-0 -77.977,32.759 -77.977,80.514c0,47.986 32.068,80.746 77.977,80.746Zm0,-17.764c-34.835,-0 -59.059,-25.147 -59.059,-62.982c-0,-37.604 24.224,-62.981 59.059,-62.981c35.067,-0 59.06,25.377 59.06,62.981c-0,37.835 -23.993,62.982 -59.06,62.982Z" style="fill:#fff;fill-rule:nonzero;"/><path d="M1268.07,1037.14l-85.36,-130.577l-23.3,0l-0,155.723l18.917,0l0,-131.038l84.898,131.038l23.762,0l0,-155.723l-18.917,0l-0,130.577Z" style="fill:#fff;fill-rule:nonzero;"/><path d="M685.546,1259.22l-59.752,-155.723l-24.223,-0l-59.521,155.723l20.071,-0l14.303,-37.835l74.747,-0l14.304,37.835l20.071,-0Zm-71.748,-137.036l31.145,82.821l-62.52,0l31.375,-82.821Z" style="fill:#fff;fill-rule:nonzero;"/><path d="M801.358,1259.22l-0,-16.841l-81.438,-0l0,-138.882l-18.917,-0l-0,155.723l100.355,-0Z" style="fill:#fff;fill-rule:nonzero;"/><path d="M922.937,1259.22l0,-16.841l-81.437,-0l-0,-138.882l-18.918,-0l0,155.723l100.355,-0Z" style="fill:#fff;fill-rule:nonzero;"/><rect x="938.625" y="1103.5" width="18.917" height="155.723" style="fill:#fff;fill-rule:nonzero;"/><path d="M1116.5,1259.22l-59.751,-155.723l-24.224,-0l-59.521,155.723l20.071,-0l14.304,-37.835l74.747,-0l14.303,37.835l20.071,-0Zm-71.748,-137.036l31.145,82.821l-62.52,0l31.375,-82.821Z" style="fill:#fff;fill-rule:nonzero;"/><path d="M1240.61,1234.08l-85.359,-130.577l-23.301,-0l0,155.723l18.918,-0l-0,-131.038l84.898,131.038l23.762,-0l-0,-155.723l-18.918,-0l0,130.577Z" style="fill:#fff;fill-rule:nonzero;"/><path d="M1360.35,1261.99c31.837,0 56.983,-15.918 68.98,-41.295l-17.764,-6.69c-9.228,18.917 -27.915,30.221 -51.216,30.221c-34.836,0 -59.059,-25.146 -59.059,-62.981c-0,-37.604 24.223,-62.981 59.059,-62.981c29.991,-0 50.293,18.225 56.522,43.371l18.225,-4.614c-8.536,-34.143 -36.912,-56.291 -74.747,-56.291c-45.909,0 -77.977,32.76 -77.977,80.515c0,47.986 32.068,80.745 77.977,80.745Z" style="fill:#fff;fill-rule:nonzero;"/><path d="M1561.29,1103.5l-104.969,-0l-0,155.723l104.969,-0l-0,-16.841l-86.052,-0l0,-53.523l78.669,0l0,-16.61l-78.669,-0l0,-51.908l86.052,-0l-0,-16.841Z" style="fill:#fff;fill-rule:nonzero;"/></g></g><g id="_-Transforming----Health-Pr-" serif:id="(Transforming ¶  Health Pr)"><path d="M977.127,1414.25c-0.54,-0 -0.972,-0.162 -1.295,-0.486c-0.324,-0.324 -0.486,-0.756 -0.486,-1.295l-0,-50.03l-16.029,0c-0.54,0 -0.971,-0.162 -1.295,-0.485c-0.324,-0.324 -0.486,-0.756 -0.486,-1.296l0,-1.214c0,-0.594 0.162,-1.052 0.486,-1.376c0.324,-0.324 0.755,-0.486 1.295,-0.486l37.077,0c0.593,0 1.052,0.162 1.376,0.486c0.324,0.324 0.486,0.782 0.486,1.376l-0,1.214c-0,0.54 -0.162,0.972 -0.486,1.296c-0.324,0.323 -0.783,0.485 -1.376,0.485l-15.948,0l-0,50.03c-0,0.539 -0.162,0.971 -0.486,1.295c-0.324,0.324 -0.782,0.486 -1.376,0.486l-1.457,-0Z" style="fill:#fff;fill-rule:nonzero;"/><path d="M998.741,1414.25c-0.539,-0 -0.971,-0.162 -1.295,-0.486c-0.324,-0.324 -0.486,-0.756 -0.486,-1.295l0,-38.453c0,-0.54 0.162,-0.985 0.486,-1.336c0.324,-0.351 0.756,-0.526 1.295,-0.526l1.296,-0c0.539,-0 0.985,0.175 1.335,0.526c0.351,0.351 0.527,0.796 0.527,1.336l-0,3.724c0.971,-1.889 2.374,-3.293 4.209,-4.21c1.835,-0.918 4.102,-1.376 6.8,-1.376l2.996,-0c0.539,-0 0.971,0.162 1.295,0.485c0.324,0.324 0.485,0.756 0.485,1.296l0,1.133c0,0.54 -0.161,0.972 -0.485,1.295c-0.324,0.324 -0.756,0.486 -1.295,0.486l-3.481,0c-3.239,0 -5.802,0.945 -7.691,2.833c-1.889,1.889 -2.833,4.453 -2.833,7.691l-0,25.096c-0,0.539 -0.176,0.971 -0.527,1.295c-0.35,0.324 -0.796,0.486 -1.335,0.486l-1.296,-0Z" style="fill:#fff;fill-rule:nonzero;"/><path d="M1033.39,1415.06c-2.59,0 -4.978,-0.54 -7.164,-1.619c-2.186,-1.079 -3.953,-2.523 -5.302,-4.331c-1.35,-1.808 -2.024,-3.845 -2.024,-6.112c-0,-3.67 1.484,-6.611 4.452,-8.824c2.969,-2.213 6.827,-3.643 11.577,-4.29l12.79,-1.781l0,-2.834c0,-2.86 -0.877,-5.113 -2.631,-6.759c-1.754,-1.646 -4.547,-2.469 -8.378,-2.469c-2.807,-0 -5.074,0.553 -6.801,1.659c-1.727,1.106 -2.914,2.55 -3.562,4.331c-0.269,0.81 -0.782,1.214 -1.538,1.214l-1.295,0c-0.648,0 -1.106,-0.175 -1.376,-0.526c-0.27,-0.351 -0.405,-0.769 -0.405,-1.255c0,-0.755 0.283,-1.7 0.85,-2.833c0.567,-1.133 1.444,-2.253 2.631,-3.36c1.187,-1.106 2.726,-2.037 4.614,-2.792c1.889,-0.756 4.183,-1.134 6.882,-1.134c3.184,0 5.815,0.432 7.892,1.295c2.078,0.864 3.697,1.984 4.858,3.36c1.16,1.376 1.983,2.901 2.469,4.574c0.485,1.673 0.728,3.319 0.728,4.938l0,26.958c0,0.539 -0.162,0.971 -0.485,1.295c-0.324,0.324 -0.756,0.486 -1.296,0.486l-1.376,-0c-0.54,-0 -0.971,-0.162 -1.295,-0.486c-0.324,-0.324 -0.486,-0.756 -0.486,-1.295l0,-3.805c-0.647,0.971 -1.565,1.943 -2.752,2.914c-1.188,0.972 -2.712,1.795 -4.574,2.469c-1.862,0.675 -4.196,1.012 -7.003,1.012Zm0.81,-4.695c2.483,-0 4.749,-0.54 6.8,-1.619c2.051,-1.08 3.683,-2.739 4.898,-4.979c1.214,-2.24 1.821,-5.06 1.821,-8.46l0,-2.752l-10.443,1.457c-4.425,0.594 -7.771,1.619 -10.038,3.076c-2.267,1.458 -3.4,3.293 -3.4,5.505c-0,1.781 0.513,3.238 1.538,4.372c1.025,1.133 2.334,1.983 3.926,2.55c1.592,0.566 3.225,0.85 4.898,0.85Z" style="fill:#fff;fill-rule:nonzero;"/><path d="M1064.8,1414.25c-0.539,-0 -0.971,-0.162 -1.295,-0.486c-0.324,-0.324 -0.486,-0.756 -0.486,-1.295l0,-38.534c0,-0.54 0.162,-0.972 0.486,-1.296c0.324,-0.323 0.756,-0.485 1.295,-0.485l1.377,-0c0.539,-0 0.971,0.162 1.295,0.485c0.324,0.324 0.486,0.756 0.486,1.296l-0,3.805c1.457,-1.889 3.224,-3.427 5.302,-4.615c2.078,-1.187 4.844,-1.781 8.298,-1.781c3.67,0 6.732,0.796 9.188,2.388c2.456,1.592 4.29,3.751 5.505,6.477c1.214,2.725 1.821,5.815 1.821,9.269l0,22.991c0,0.539 -0.162,0.971 -0.485,1.295c-0.324,0.324 -0.756,0.486 -1.296,0.486l-1.376,-0c-0.54,-0 -0.971,-0.162 -1.295,-0.486c-0.324,-0.324 -0.486,-0.756 -0.486,-1.295l0,-22.586c0,-4.318 -1.052,-7.705 -3.157,-10.16c-2.105,-2.456 -5.181,-3.683 -9.229,-3.683c-3.832,-0 -6.921,1.227 -9.269,3.683c-2.348,2.455 -3.521,5.842 -3.521,10.16l-0,22.586c-0,0.539 -0.162,0.971 -0.486,1.295c-0.324,0.324 -0.756,0.486 -1.295,0.486l-1.377,-0Z" style="fill:#fff;fill-rule:nonzero;"/><path d="M1121.71,1415.06c-2.807,0 -5.222,-0.378 -7.246,-1.133c-2.024,-0.756 -3.683,-1.66 -4.978,-2.712c-1.296,-1.053 -2.254,-2.092 -2.874,-3.117c-0.621,-1.025 -0.958,-1.808 -1.012,-2.348c-0.054,-0.593 0.135,-1.038 0.567,-1.335c0.431,-0.297 0.836,-0.446 1.214,-0.446l1.214,0c0.324,0 0.607,0.054 0.85,0.162c0.243,0.108 0.553,0.405 0.931,0.891c0.702,0.917 1.511,1.794 2.429,2.631c0.917,0.836 2.091,1.497 3.521,1.983c1.43,0.486 3.225,0.729 5.384,0.729c3.238,-0 5.909,-0.621 8.014,-1.862c2.105,-1.241 3.157,-3.076 3.157,-5.505c0,-1.511 -0.418,-2.725 -1.255,-3.643c-0.836,-0.917 -2.253,-1.727 -4.25,-2.428c-1.996,-0.702 -4.695,-1.431 -8.095,-2.186c-3.4,-0.81 -6.004,-1.781 -7.812,-2.915c-1.808,-1.133 -3.036,-2.442 -3.683,-3.926c-0.648,-1.484 -0.972,-3.09 -0.972,-4.817c0,-1.888 0.54,-3.737 1.619,-5.545c1.08,-1.808 2.685,-3.292 4.817,-4.452c2.132,-1.161 4.817,-1.741 8.055,-1.741c2.644,0 4.898,0.351 6.759,1.053c1.862,0.701 3.387,1.551 4.574,2.55c1.188,0.998 2.065,1.983 2.631,2.954c0.567,0.972 0.877,1.754 0.931,2.348c0.054,0.54 -0.108,0.972 -0.485,1.295c-0.378,0.324 -0.81,0.486 -1.296,0.486l-1.214,0c-0.432,0 -0.783,-0.094 -1.052,-0.283c-0.27,-0.189 -0.513,-0.446 -0.729,-0.769c-0.54,-0.864 -1.187,-1.673 -1.943,-2.429c-0.755,-0.755 -1.767,-1.363 -3.036,-1.821c-1.268,-0.459 -2.981,-0.688 -5.14,-0.688c-3.238,-0 -5.64,0.661 -7.205,1.983c-1.565,1.322 -2.348,3.009 -2.348,5.059c0,1.188 0.324,2.227 0.972,3.117c0.647,0.891 1.862,1.7 3.643,2.429c1.781,0.728 4.371,1.497 7.771,2.307c3.454,0.756 6.18,1.686 8.177,2.793c1.996,1.106 3.413,2.415 4.25,3.926c0.836,1.511 1.254,3.292 1.254,5.343c0,2.159 -0.607,4.156 -1.821,5.991c-1.214,1.835 -3.022,3.305 -5.424,4.412c-2.402,1.106 -5.356,1.659 -8.864,1.659Z" style="fill:#fff;fill-rule:nonzero;"/><path d="M1151.5,1414.25c-0.539,-0 -0.971,-0.162 -1.295,-0.486c-0.324,-0.324 -0.485,-0.756 -0.485,-1.295l-0,-35.62l-7.205,0c-0.54,0 -0.972,-0.162 -1.296,-0.486c-0.323,-0.323 -0.485,-0.755 -0.485,-1.295l-0,-1.133c-0,-0.54 0.162,-0.972 0.485,-1.296c0.324,-0.323 0.756,-0.485 1.296,-0.485l7.205,-0l-0,-4.615c-0,-2.428 0.337,-4.641 1.011,-6.638c0.675,-1.997 1.889,-3.589 3.643,-4.776c1.754,-1.187 4.277,-1.781 7.569,-1.781l4.21,-0c0.54,-0 0.972,0.162 1.295,0.486c0.324,0.324 0.486,0.755 0.486,1.295l0,1.133c0,0.54 -0.162,0.972 -0.486,1.296c-0.323,0.323 -0.755,0.485 -1.295,0.485l-4.21,0c-2.86,0 -4.789,0.769 -5.788,2.307c-0.998,1.539 -1.497,3.738 -1.497,6.598l-0,4.21l10.686,-0c0.539,-0 0.971,0.162 1.295,0.485c0.324,0.324 0.486,0.756 0.486,1.296l-0,1.133c-0,0.54 -0.162,0.972 -0.486,1.295c-0.324,0.324 -0.756,0.486 -1.295,0.486l-10.686,0l-0,35.62c-0,0.539 -0.162,0.971 -0.486,1.295c-0.324,0.324 -0.756,0.486 -1.295,0.486l-1.377,-0Z" style="fill:#fff;fill-rule:nonzero;"/><path d="M1187.61,1415.06c-3.886,0 -7.138,-0.809 -9.755,-2.429c-2.618,-1.619 -4.615,-3.831 -5.991,-6.638c-1.376,-2.806 -2.118,-5.936 -2.226,-9.39c-0.054,-0.81 -0.081,-1.943 -0.081,-3.4c0,-1.458 0.027,-2.591 0.081,-3.4c0.108,-3.508 0.85,-6.652 2.226,-9.431c1.376,-2.78 3.373,-4.979 5.991,-6.598c2.617,-1.619 5.869,-2.429 9.755,-2.429c3.885,0 7.137,0.81 9.755,2.429c2.617,1.619 4.614,3.818 5.99,6.598c1.376,2.779 2.118,5.923 2.226,9.431c0.054,0.809 0.081,1.942 0.081,3.4c0,1.457 -0.027,2.59 -0.081,3.4c-0.108,3.454 -0.85,6.584 -2.226,9.39c-1.376,2.807 -3.373,5.019 -5.99,6.638c-2.618,1.62 -5.87,2.429 -9.755,2.429Zm-0,-4.695c3.778,-0 6.854,-1.215 9.228,-3.643c2.375,-2.429 3.643,-5.937 3.805,-10.524c0.054,-0.81 0.081,-1.808 0.081,-2.995c0,-1.188 -0.027,-2.186 -0.081,-2.996c-0.162,-4.641 -1.43,-8.162 -3.805,-10.564c-2.374,-2.402 -5.45,-3.602 -9.228,-3.602c-3.778,-0 -6.854,1.2 -9.229,3.602c-2.375,2.402 -3.643,5.923 -3.805,10.564c-0.054,0.81 -0.081,1.808 -0.081,2.996c0,1.187 0.027,2.185 0.081,2.995c0.162,4.587 1.43,8.095 3.805,10.524c2.375,2.428 5.451,3.643 9.229,3.643Z" style="fill:#fff;fill-rule:nonzero;"/><path d="M1216.1,1414.25c-0.539,-0 -0.971,-0.162 -1.295,-0.486c-0.324,-0.324 -0.486,-0.756 -0.486,-1.295l0,-38.453c0,-0.54 0.162,-0.985 0.486,-1.336c0.324,-0.351 0.756,-0.526 1.295,-0.526l1.296,-0c0.539,-0 0.985,0.175 1.335,0.526c0.351,0.351 0.527,0.796 0.527,1.336l-0,3.724c0.971,-1.889 2.374,-3.293 4.209,-4.21c1.835,-0.918 4.102,-1.376 6.8,-1.376l2.995,-0c0.54,-0 0.972,0.162 1.296,0.485c0.324,0.324 0.485,0.756 0.485,1.296l0,1.133c0,0.54 -0.161,0.972 -0.485,1.295c-0.324,0.324 -0.756,0.486 -1.296,0.486l-3.481,0c-3.238,0 -5.801,0.945 -7.69,2.833c-1.889,1.889 -2.833,4.453 -2.833,7.691l-0,25.096c-0,0.539 -0.176,0.971 -0.527,1.295c-0.35,0.324 -0.796,0.486 -1.335,0.486l-1.296,-0Z" style="fill:#fff;fill-rule:nonzero;"/><path d="M1241.85,1414.25c-0.54,-0 -0.972,-0.162 -1.296,-0.486c-0.324,-0.324 -0.485,-0.756 -0.485,-1.295l-0,-38.534c-0,-0.54 0.161,-0.972 0.485,-1.296c0.324,-0.323 0.756,-0.485 1.296,-0.485l1.376,-0c0.539,-0 0.971,0.162 1.295,0.485c0.324,0.324 0.486,0.756 0.486,1.296l-0,2.833c1.349,-1.727 2.955,-3.063 4.816,-4.007c1.862,-0.945 4.116,-1.417 6.76,-1.417c6.045,0 10.362,2.537 12.953,7.61c1.241,-2.321 3.062,-4.169 5.464,-5.545c2.402,-1.377 5.167,-2.065 8.298,-2.065c2.86,0 5.437,0.661 7.731,1.984c2.293,1.322 4.101,3.278 5.424,5.869c1.322,2.59 1.983,5.828 1.983,9.714l-0,23.558c-0,0.539 -0.162,0.971 -0.486,1.295c-0.324,0.324 -0.755,0.486 -1.295,0.486l-1.376,-0c-0.54,-0 -0.972,-0.162 -1.295,-0.486c-0.324,-0.324 -0.486,-0.756 -0.486,-1.295l-0,-22.748c-0,-3.562 -0.513,-6.328 -1.538,-8.298c-1.026,-1.97 -2.375,-3.36 -4.048,-4.169c-1.673,-0.81 -3.481,-1.214 -5.424,-1.214c-1.619,-0 -3.265,0.404 -4.938,1.214c-1.673,0.809 -3.063,2.199 -4.169,4.169c-1.106,1.97 -1.66,4.736 -1.66,8.298l0,22.748c0,0.539 -0.162,0.971 -0.485,1.295c-0.324,0.324 -0.756,0.486 -1.296,0.486l-1.376,-0c-0.54,-0 -0.971,-0.162 -1.295,-0.486c-0.324,-0.324 -0.486,-0.756 -0.486,-1.295l0,-22.748c0,-3.562 -0.54,-6.328 -1.619,-8.298c-1.079,-1.97 -2.455,-3.36 -4.129,-4.169c-1.673,-0.81 -3.427,-1.214 -5.261,-1.214c-1.62,-0 -3.266,0.404 -4.939,1.214c-1.673,0.809 -3.062,2.199 -4.169,4.169c-1.106,1.97 -1.659,4.709 -1.659,8.217l-0,22.829c-0,0.539 -0.162,0.971 -0.486,1.295c-0.324,0.324 -0.756,0.486 -1.295,0.486l-1.376,-0Z" style="fill:#fff;fill-rule:nonzero;"/><path d="M1310.49,1414.25c-0.54,-0 -0.971,-0.162 -1.295,-0.486c-0.324,-0.324 -0.486,-0.756 -0.486,-1.295l0,-38.534c0,-0.54 0.162,-0.972 0.486,-1.296c0.324,-0.323 0.755,-0.485 1.295,-0.485l1.376,-0c0.54,-0 0.972,0.162 1.296,0.485c0.323,0.324 0.485,0.756 0.485,1.296l0,38.534c0,0.539 -0.162,0.971 -0.485,1.295c-0.324,0.324 -0.756,0.486 -1.296,0.486l-1.376,-0Zm-0.89,-50.758c-0.54,-0 -0.972,-0.162 -1.296,-0.486c-0.324,-0.324 -0.485,-0.756 -0.485,-1.295l-0,-3.076c-0,-0.54 0.161,-0.985 0.485,-1.336c0.324,-0.351 0.756,-0.526 1.296,-0.526l3.076,-0c0.539,-0 0.985,0.175 1.336,0.526c0.35,0.351 0.526,0.796 0.526,1.336l-0,3.076c-0,0.539 -0.176,0.971 -0.526,1.295c-0.351,0.324 -0.797,0.486 -1.336,0.486l-3.076,-0Z" style="fill:#fff;fill-rule:nonzero;"/><path d="M1326.12,1414.25c-0.54,-0 -0.971,-0.162 -1.295,-0.486c-0.324,-0.324 -0.486,-0.756 -0.486,-1.295l0,-38.534c0,-0.54 0.162,-0.972 0.486,-1.296c0.324,-0.323 0.755,-0.485 1.295,-0.485l1.376,-0c0.54,-0 0.972,0.162 1.296,0.485c0.323,0.324 0.485,0.756 0.485,1.296l0,3.805c1.457,-1.889 3.225,-3.427 5.303,-4.615c2.077,-1.187 4.843,-1.781 8.297,-1.781c3.67,0 6.733,0.796 9.189,2.388c2.455,1.592 4.29,3.751 5.504,6.477c1.215,2.725 1.822,5.815 1.822,9.269l-0,22.991c-0,0.539 -0.162,0.971 -0.486,1.295c-0.324,0.324 -0.755,0.486 -1.295,0.486l-1.376,-0c-0.54,-0 -0.972,-0.162 -1.296,-0.486c-0.323,-0.324 -0.485,-0.756 -0.485,-1.295l-0,-22.586c-0,-4.318 -1.053,-7.705 -3.157,-10.16c-2.105,-2.456 -5.181,-3.683 -9.229,-3.683c-3.832,-0 -6.922,1.227 -9.269,3.683c-2.348,2.455 -3.522,5.842 -3.522,10.16l0,22.586c0,0.539 -0.162,0.971 -0.485,1.295c-0.324,0.324 -0.756,0.486 -1.296,0.486l-1.376,-0Z" style="fill:#fff;fill-rule:nonzero;"/><path d="M1385.38,1432.06c-3.454,0 -6.274,-0.458 -8.46,-1.376c-2.185,-0.917 -3.885,-2.037 -5.1,-3.359c-1.214,-1.323 -2.064,-2.645 -2.55,-3.967c-0.485,-1.322 -0.755,-2.388 -0.809,-3.198c-0.054,-0.54 0.108,-0.985 0.485,-1.336c0.378,-0.35 0.81,-0.526 1.296,-0.526l1.133,0c0.432,0 0.81,0.095 1.133,0.284c0.324,0.188 0.594,0.661 0.81,1.416c0.324,0.864 0.85,1.876 1.578,3.036c0.729,1.16 1.889,2.172 3.481,3.036c1.593,0.863 3.792,1.295 6.598,1.295c2.968,-0 5.451,-0.378 7.448,-1.133c1.997,-0.756 3.521,-2.092 4.574,-4.008c1.052,-1.915 1.578,-4.573 1.578,-7.973l0,-5.586c-1.349,1.835 -3.116,3.359 -5.302,4.574c-2.186,1.214 -4.952,1.821 -8.298,1.821c-3.13,0 -5.788,-0.567 -7.974,-1.7c-2.185,-1.133 -3.953,-2.644 -5.302,-4.533c-1.349,-1.889 -2.348,-3.994 -2.995,-6.315c-0.648,-2.32 -0.999,-4.668 -1.053,-7.043c-0.054,-1.511 -0.054,-3.022 0,-4.533c0.054,-2.375 0.405,-4.722 1.053,-7.043c0.647,-2.321 1.646,-4.425 2.995,-6.314c1.349,-1.889 3.117,-3.4 5.302,-4.534c2.186,-1.133 4.844,-1.7 7.974,-1.7c3.346,0 6.112,0.621 8.298,1.862c2.186,1.241 3.953,2.753 5.302,4.534l0,-3.724c0,-0.54 0.162,-0.985 0.486,-1.336c0.324,-0.351 0.756,-0.526 1.295,-0.526l1.296,-0c0.539,-0 0.985,0.175 1.335,0.526c0.351,0.351 0.527,0.796 0.527,1.336l-0,39.424c-0,3.454 -0.513,6.584 -1.539,9.391c-1.025,2.806 -2.846,5.046 -5.464,6.719c-2.617,1.673 -6.328,2.509 -11.131,2.509Zm0.081,-21.695c3.076,-0 5.559,-0.729 7.448,-2.186c1.889,-1.457 3.278,-3.279 4.169,-5.464c0.89,-2.186 1.389,-4.385 1.497,-6.598c0.054,-0.81 0.081,-1.781 0.081,-2.914c0,-1.134 -0.027,-2.105 -0.081,-2.915c-0.108,-2.212 -0.607,-4.412 -1.497,-6.597c-0.891,-2.186 -2.28,-4.008 -4.169,-5.465c-1.889,-1.457 -4.372,-2.185 -7.448,-2.185c-3.13,-0 -5.626,0.701 -7.488,2.104c-1.862,1.403 -3.198,3.238 -4.007,5.505c-0.81,2.267 -1.269,4.695 -1.377,7.286c-0.054,1.511 -0.054,3.022 0,4.533c0.108,2.591 0.567,5.019 1.377,7.286c0.809,2.267 2.145,4.102 4.007,5.505c1.862,1.403 4.358,2.105 7.488,2.105Z" style="fill:#fff;fill-rule:nonzero;"/><path d="M929.931,1497.62c-0.54,-0 -0.971,-0.162 -1.295,-0.486c-0.324,-0.324 -0.486,-0.756 -0.486,-1.295l-0,-53.025c-0,-0.594 0.162,-1.052 0.486,-1.376c0.324,-0.324 0.755,-0.486 1.295,-0.486l1.457,0c0.594,0 1.053,0.162 1.376,0.486c0.324,0.324 0.486,0.782 0.486,1.376l0,23.639l31.248,-0l0,-23.639c0,-0.594 0.162,-1.052 0.486,-1.376c0.324,-0.324 0.755,-0.486 1.295,-0.486l1.457,0c0.594,0 1.053,0.162 1.376,0.486c0.324,0.324 0.486,0.782 0.486,1.376l0,53.025c0,0.539 -0.162,0.971 -0.486,1.295c-0.323,0.324 -0.782,0.486 -1.376,0.486l-1.457,-0c-0.54,-0 -0.971,-0.162 -1.295,-0.486c-0.324,-0.324 -0.486,-0.756 -0.486,-1.295l0,-24.529l-31.248,-0l0,24.529c0,0.539 -0.162,0.971 -0.486,1.295c-0.323,0.324 -0.782,0.486 -1.376,0.486l-1.457,-0Z" style="fill:#fff;fill-rule:nonzero;"/><path d="M996.96,1498.43c-5.235,0 -9.39,-1.713 -12.466,-5.14c-3.077,-3.427 -4.831,-7.92 -5.262,-13.479c-0.054,-0.81 -0.081,-1.889 -0.081,-3.238c-0,-1.35 0.027,-2.429 0.081,-3.238c0.269,-3.67 1.133,-6.908 2.59,-9.715c1.457,-2.806 3.468,-4.992 6.031,-6.557c2.564,-1.565 5.599,-2.348 9.107,-2.348c3.778,0 6.989,0.837 9.634,2.51c2.644,1.673 4.682,4.075 6.112,7.205c1.43,3.13 2.145,6.854 2.145,11.171l0,1.215c0,0.539 -0.175,0.971 -0.526,1.295c-0.351,0.324 -0.796,0.486 -1.336,0.486l-28.819,-0l-0,0.809c0.108,2.429 0.674,4.736 1.7,6.922c1.025,2.185 2.482,3.966 4.371,5.343c1.889,1.376 4.129,2.064 6.719,2.064c2.321,-0 4.25,-0.351 5.789,-1.053c1.538,-0.701 2.765,-1.47 3.683,-2.307c0.917,-0.836 1.511,-1.47 1.781,-1.902c0.486,-0.702 0.863,-1.12 1.133,-1.255c0.27,-0.135 0.702,-0.202 1.296,-0.202l1.295,-0c0.486,-0 0.904,0.148 1.255,0.445c0.35,0.297 0.499,0.688 0.445,1.174c-0.054,0.755 -0.472,1.686 -1.255,2.793c-0.783,1.106 -1.889,2.199 -3.319,3.278c-1.43,1.08 -3.171,1.97 -5.222,2.672c-2.05,0.701 -4.344,1.052 -6.881,1.052Zm-12.79,-24.367l25.743,0l-0,-0.324c-0,-2.698 -0.513,-5.127 -1.538,-7.285c-1.026,-2.159 -2.51,-3.873 -4.453,-5.141c-1.942,-1.268 -4.263,-1.902 -6.962,-1.902c-2.698,-0 -5.005,0.634 -6.921,1.902c-1.916,1.268 -3.373,2.982 -4.372,5.141c-0.998,2.158 -1.497,4.587 -1.497,7.285l-0,0.324Z" style="fill:#fff;fill-rule:nonzero;"/><path d="M1034.44,1498.43c-2.591,0 -4.979,-0.54 -7.165,-1.619c-2.185,-1.079 -3.953,-2.523 -5.302,-4.331c-1.349,-1.808 -2.024,-3.845 -2.024,-6.112c0,-3.67 1.484,-6.611 4.453,-8.824c2.968,-2.213 6.827,-3.643 11.576,-4.29l12.791,-1.781l-0,-2.834c-0,-2.86 -0.877,-5.113 -2.631,-6.759c-1.754,-1.646 -4.547,-2.469 -8.379,-2.469c-2.806,-0 -5.073,0.553 -6.8,1.659c-1.727,1.107 -2.914,2.55 -3.562,4.331c-0.27,0.81 -0.783,1.214 -1.538,1.214l-1.295,0c-0.648,0 -1.107,-0.175 -1.377,-0.526c-0.27,-0.351 -0.404,-0.769 -0.404,-1.255c-0,-0.755 0.283,-1.7 0.85,-2.833c0.566,-1.133 1.443,-2.253 2.631,-3.359c1.187,-1.107 2.725,-2.038 4.614,-2.793c1.889,-0.756 4.182,-1.134 6.881,-1.134c3.184,0 5.815,0.432 7.893,1.296c2.078,0.863 3.697,1.983 4.857,3.359c1.16,1.376 1.983,2.901 2.469,4.574c0.486,1.673 0.729,3.319 0.729,4.938l-0,26.958c-0,0.539 -0.162,0.971 -0.486,1.295c-0.324,0.324 -0.756,0.486 -1.295,0.486l-1.376,-0c-0.54,-0 -0.972,-0.162 -1.296,-0.486c-0.323,-0.324 -0.485,-0.756 -0.485,-1.295l-0,-3.805c-0.648,0.971 -1.566,1.943 -2.753,2.914c-1.187,0.972 -2.712,1.795 -4.574,2.469c-1.862,0.675 -4.196,1.012 -7.002,1.012Zm0.809,-4.695c2.483,-0 4.75,-0.54 6.8,-1.619c2.051,-1.08 3.684,-2.739 4.898,-4.979c1.214,-2.24 1.822,-5.059 1.822,-8.459l-0,-2.753l-10.443,1.457c-4.426,0.594 -7.772,1.619 -10.039,3.076c-2.266,1.458 -3.4,3.293 -3.4,5.505c0,1.781 0.513,3.238 1.538,4.372c1.026,1.133 2.335,1.983 3.927,2.55c1.592,0.567 3.224,0.85 4.897,0.85Z" style="fill:#fff;fill-rule:nonzero;"/><path d="M1065.93,1497.62c-0.54,-0 -0.972,-0.162 -1.296,-0.486c-0.323,-0.324 -0.485,-0.756 -0.485,-1.295l-0,-53.915c-0,-0.54 0.162,-0.972 0.485,-1.296c0.324,-0.323 0.756,-0.485 1.296,-0.485l1.376,-0c0.54,-0 0.971,0.162 1.295,0.485c0.324,0.324 0.486,0.756 0.486,1.296l-0,53.915c-0,0.539 -0.162,0.971 -0.486,1.295c-0.324,0.324 -0.755,0.486 -1.295,0.486l-1.376,-0Z" style="fill:#fff;fill-rule:nonzero;"/><path d="M1094.02,1497.62c-2.807,-0 -5.02,-0.594 -6.639,-1.781c-1.619,-1.188 -2.752,-2.807 -3.4,-4.858c-0.647,-2.05 -0.971,-4.344 -0.971,-6.881l-0,-23.881l-6.314,0c-0.54,0 -0.972,-0.162 -1.296,-0.486c-0.324,-0.323 -0.485,-0.755 -0.485,-1.295l-0,-1.133c-0,-0.54 0.161,-0.972 0.485,-1.295c0.324,-0.324 0.756,-0.486 1.296,-0.486l6.314,-0l-0,-13.6c-0,-0.54 0.162,-0.972 0.486,-1.296c0.323,-0.323 0.755,-0.485 1.295,-0.485l1.376,-0c0.54,-0 0.972,0.162 1.295,0.485c0.324,0.324 0.486,0.756 0.486,1.296l0,13.6l10.038,-0c0.54,-0 0.972,0.162 1.296,0.486c0.323,0.323 0.485,0.755 0.485,1.295l0,1.133c0,0.54 -0.162,0.972 -0.485,1.295c-0.324,0.324 -0.756,0.486 -1.296,0.486l-10.038,0l0,23.558c0,2.86 0.472,5.1 1.417,6.719c0.944,1.619 2.631,2.428 5.059,2.428l4.372,0c0.54,0 0.971,0.162 1.295,0.486c0.324,0.324 0.486,0.756 0.486,1.295l-0,1.134c-0,0.539 -0.162,0.971 -0.486,1.295c-0.324,0.324 -0.755,0.486 -1.295,0.486l-4.776,-0Z" style="fill:#fff;fill-rule:nonzero;"/><path d="M1108.35,1497.62c-0.539,-0 -0.971,-0.162 -1.295,-0.486c-0.324,-0.324 -0.486,-0.756 -0.486,-1.295l0,-53.915c0,-0.54 0.162,-0.972 0.486,-1.296c0.324,-0.323 0.756,-0.485 1.295,-0.485l1.377,-0c0.539,-0 0.971,0.162 1.295,0.485c0.324,0.324 0.486,0.756 0.486,1.296l-0,19.186c1.457,-1.889 3.224,-3.427 5.302,-4.615c2.078,-1.187 4.844,-1.781 8.298,-1.781c3.67,0 6.732,0.796 9.188,2.388c2.455,1.593 4.29,3.751 5.505,6.477c1.214,2.725 1.821,5.815 1.821,9.269l0,22.991c0,0.539 -0.162,0.971 -0.486,1.295c-0.323,0.324 -0.755,0.486 -1.295,0.486l-1.376,-0c-0.54,-0 -0.971,-0.162 -1.295,-0.486c-0.324,-0.324 -0.486,-0.756 -0.486,-1.295l0,-22.586c0,-4.318 -1.052,-7.704 -3.157,-10.16c-2.105,-2.456 -5.181,-3.683 -9.229,-3.683c-3.832,-0 -6.921,1.227 -9.269,3.683c-2.348,2.456 -3.521,5.842 -3.521,10.16l-0,22.586c-0,0.539 -0.162,0.971 -0.486,1.295c-0.324,0.324 -0.756,0.486 -1.295,0.486l-1.377,-0Z" style="fill:#fff;fill-rule:nonzero;"/><path d="M1173.2,1497.62c-0.54,-0 -0.971,-0.162 -1.295,-0.486c-0.324,-0.324 -0.486,-0.756 -0.486,-1.295l0,-53.025c0,-0.594 0.162,-1.052 0.486,-1.376c0.324,-0.324 0.755,-0.486 1.295,-0.486l19.672,0c3.778,0 7.056,0.634 9.836,1.903c2.779,1.268 4.938,3.143 6.476,5.626c1.538,2.482 2.307,5.559 2.307,9.229c-0,3.669 -0.769,6.746 -2.307,9.228c-1.538,2.483 -3.697,4.358 -6.476,5.627c-2.78,1.268 -6.058,1.902 -9.836,1.902l-16.353,-0l0,21.372c0,0.539 -0.162,0.971 -0.486,1.295c-0.323,0.324 -0.782,0.486 -1.376,0.486l-1.457,-0Zm3.319,-28.01l15.948,-0c4.695,-0 8.19,-1.026 10.483,-3.077c2.294,-2.05 3.441,-4.992 3.441,-8.823c-0,-3.832 -1.147,-6.774 -3.441,-8.824c-2.293,-2.051 -5.788,-3.077 -10.483,-3.077l-15.948,0l0,23.801Z" style="fill:#fff;fill-rule:nonzero;"/><path d="M1220.55,1497.62c-0.54,-0 -0.972,-0.162 -1.295,-0.486c-0.324,-0.324 -0.486,-0.756 -0.486,-1.295l-0,-38.453c-0,-0.54 0.162,-0.985 0.486,-1.336c0.323,-0.351 0.755,-0.526 1.295,-0.526l1.295,-0c0.54,-0 0.985,0.175 1.336,0.526c0.351,0.351 0.526,0.796 0.526,1.336l-0,3.724c0.971,-1.889 2.375,-3.292 4.21,-4.21c1.834,-0.917 4.101,-1.376 6.8,-1.376l2.995,-0c0.54,-0 0.971,0.162 1.295,0.486c0.324,0.323 0.486,0.755 0.486,1.295l-0,1.133c-0,0.54 -0.162,0.972 -0.486,1.295c-0.324,0.324 -0.755,0.486 -1.295,0.486l-3.481,0c-3.238,0 -5.802,0.945 -7.691,2.834c-1.889,1.888 -2.833,4.452 -2.833,7.69l-0,25.096c-0,0.539 -0.175,0.971 -0.526,1.295c-0.351,0.324 -0.796,0.486 -1.336,0.486l-1.295,-0Z" style="fill:#fff;fill-rule:nonzero;"/><path d="M1259.57,1498.43c-3.885,0 -7.137,-0.809 -9.755,-2.428c-2.617,-1.62 -4.614,-3.832 -5.99,-6.639c-1.376,-2.806 -2.118,-5.936 -2.226,-9.39c-0.054,-0.81 -0.081,-1.943 -0.081,-3.4c-0,-1.457 0.027,-2.591 0.081,-3.4c0.108,-3.508 0.85,-6.652 2.226,-9.431c1.376,-2.78 3.373,-4.979 5.99,-6.598c2.618,-1.619 5.87,-2.429 9.755,-2.429c3.886,0 7.138,0.81 9.755,2.429c2.618,1.619 4.615,3.818 5.991,6.598c1.376,2.779 2.118,5.923 2.226,9.431c0.054,0.809 0.081,1.943 0.081,3.4c-0,1.457 -0.027,2.59 -0.081,3.4c-0.108,3.454 -0.85,6.584 -2.226,9.39c-1.376,2.807 -3.373,5.019 -5.991,6.639c-2.617,1.619 -5.869,2.428 -9.755,2.428Zm0,-4.695c3.778,-0 6.854,-1.214 9.229,-3.643c2.375,-2.429 3.643,-5.937 3.805,-10.524c0.054,-0.81 0.081,-1.808 0.081,-2.995c-0,-1.188 -0.027,-2.186 -0.081,-2.996c-0.162,-4.641 -1.43,-8.162 -3.805,-10.564c-2.375,-2.402 -5.451,-3.602 -9.229,-3.602c-3.777,-0 -6.854,1.2 -9.228,3.602c-2.375,2.402 -3.643,5.923 -3.805,10.564c-0.054,0.81 -0.081,1.808 -0.081,2.996c-0,1.187 0.027,2.185 0.081,2.995c0.162,4.587 1.43,8.095 3.805,10.524c2.374,2.429 5.451,3.643 9.228,3.643Z" style="fill:#fff;fill-rule:nonzero;"/><path d="M1291.47,1497.62c-0.54,-0 -0.971,-0.162 -1.295,-0.486c-0.324,-0.324 -0.486,-0.756 -0.486,-1.295l0,-35.62l-7.205,0c-0.54,0 -0.971,-0.162 -1.295,-0.486c-0.324,-0.323 -0.486,-0.755 -0.486,-1.295l0,-1.133c0,-0.54 0.162,-0.972 0.486,-1.295c0.324,-0.324 0.755,-0.486 1.295,-0.486l7.205,-0l0,-4.615c0,-2.428 0.337,-4.641 1.012,-6.638c0.675,-1.997 1.889,-3.589 3.643,-4.776c1.754,-1.187 4.277,-1.781 7.569,-1.781l4.21,0c0.539,0 0.971,0.162 1.295,0.486c0.324,0.324 0.486,0.755 0.486,1.295l-0,1.133c-0,0.54 -0.162,0.972 -0.486,1.296c-0.324,0.323 -0.756,0.485 -1.295,0.485l-4.21,0c-2.86,0 -4.79,0.769 -5.788,2.308c-0.999,1.538 -1.498,3.737 -1.498,6.597l0,4.21l10.686,-0c0.54,-0 0.971,0.162 1.295,0.486c0.324,0.323 0.486,0.755 0.486,1.295l-0,1.133c-0,0.54 -0.162,0.972 -0.486,1.295c-0.324,0.324 -0.755,0.486 -1.295,0.486l-10.686,0l0,35.62c0,0.539 -0.162,0.971 -0.486,1.295c-0.323,0.324 -0.755,0.486 -1.295,0.486l-1.376,-0Z" style="fill:#fff;fill-rule:nonzero;"/><path d="M1327.17,1498.43c-5.235,0 -9.39,-1.713 -12.466,-5.14c-3.077,-3.427 -4.831,-7.92 -5.262,-13.479c-0.054,-0.81 -0.081,-1.889 -0.081,-3.238c-0,-1.35 0.027,-2.429 0.081,-3.238c0.269,-3.67 1.133,-6.908 2.59,-9.715c1.457,-2.806 3.468,-4.992 6.031,-6.557c2.564,-1.565 5.599,-2.348 9.107,-2.348c3.778,0 6.989,0.837 9.634,2.51c2.644,1.673 4.682,4.075 6.112,7.205c1.43,3.13 2.145,6.854 2.145,11.171l0,1.215c0,0.539 -0.175,0.971 -0.526,1.295c-0.351,0.324 -0.796,0.486 -1.336,0.486l-28.819,-0l-0,0.809c0.108,2.429 0.674,4.736 1.7,6.922c1.025,2.185 2.482,3.966 4.371,5.343c1.889,1.376 4.129,2.064 6.719,2.064c2.321,-0 4.251,-0.351 5.789,-1.053c1.538,-0.701 2.766,-1.47 3.683,-2.307c0.917,-0.836 1.511,-1.47 1.781,-1.902c0.486,-0.702 0.863,-1.12 1.133,-1.255c0.27,-0.135 0.702,-0.202 1.296,-0.202l1.295,-0c0.486,-0 0.904,0.148 1.255,0.445c0.35,0.297 0.499,0.688 0.445,1.174c-0.054,0.755 -0.472,1.686 -1.255,2.793c-0.782,1.106 -1.889,2.199 -3.319,3.278c-1.43,1.08 -3.171,1.97 -5.222,2.672c-2.05,0.701 -4.344,1.052 -6.881,1.052Zm-12.79,-24.367l25.743,0l-0,-0.324c-0,-2.698 -0.513,-5.127 -1.538,-7.285c-1.026,-2.159 -2.51,-3.873 -4.453,-5.141c-1.942,-1.268 -4.263,-1.902 -6.962,-1.902c-2.698,-0 -5.005,0.634 -6.921,1.902c-1.916,1.268 -3.373,2.982 -4.372,5.141c-0.998,2.158 -1.497,4.587 -1.497,7.285l-0,0.324Z" style="fill:#fff;fill-rule:nonzero;"/><path d="M1366.67,1498.43c-2.807,0 -5.222,-0.378 -7.246,-1.133c-2.023,-0.756 -3.683,-1.66 -4.978,-2.712c-1.296,-1.053 -2.253,-2.091 -2.874,-3.117c-0.621,-1.025 -0.958,-1.808 -1.012,-2.347c-0.054,-0.594 0.135,-1.039 0.567,-1.336c0.431,-0.297 0.836,-0.445 1.214,-0.445l1.214,-0c0.324,-0 0.607,0.053 0.85,0.161c0.243,0.108 0.553,0.405 0.931,0.891c0.702,0.917 1.511,1.794 2.429,2.631c0.917,0.836 2.091,1.498 3.521,1.983c1.43,0.486 3.225,0.729 5.384,0.729c3.238,-0 5.909,-0.621 8.014,-1.862c2.105,-1.241 3.157,-3.076 3.157,-5.505c0,-1.511 -0.418,-2.725 -1.254,-3.643c-0.837,-0.917 -2.254,-1.727 -4.251,-2.428c-1.996,-0.702 -4.695,-1.431 -8.095,-2.186c-3.4,-0.81 -6.004,-1.781 -7.812,-2.914c-1.808,-1.134 -3.036,-2.443 -3.683,-3.927c-0.648,-1.484 -0.972,-3.089 -0.972,-4.816c0,-1.889 0.54,-3.738 1.619,-5.546c1.08,-1.808 2.685,-3.292 4.817,-4.452c2.132,-1.161 4.817,-1.741 8.055,-1.741c2.644,0 4.898,0.351 6.76,1.053c1.861,0.701 3.386,1.551 4.573,2.55c1.188,0.998 2.065,1.983 2.631,2.955c0.567,0.971 0.877,1.754 0.931,2.347c0.054,0.54 -0.108,0.972 -0.485,1.295c-0.378,0.324 -0.81,0.486 -1.296,0.486l-1.214,0c-0.432,0 -0.782,-0.094 -1.052,-0.283c-0.27,-0.189 -0.513,-0.445 -0.729,-0.769c-0.54,-0.864 -1.187,-1.673 -1.943,-2.429c-0.755,-0.755 -1.767,-1.363 -3.036,-1.821c-1.268,-0.459 -2.981,-0.688 -5.14,-0.688c-3.238,-0 -5.64,0.661 -7.205,1.983c-1.565,1.322 -2.348,3.009 -2.348,5.06c0,1.187 0.324,2.226 0.972,3.116c0.648,0.891 1.862,1.7 3.643,2.429c1.781,0.728 4.371,1.497 7.771,2.307c3.454,0.756 6.18,1.687 8.177,2.793c1.996,1.106 3.413,2.415 4.25,3.926c0.836,1.511 1.254,3.292 1.254,5.343c0,2.159 -0.607,4.156 -1.821,5.991c-1.214,1.835 -3.022,3.305 -5.424,4.412c-2.401,1.106 -5.356,1.659 -8.864,1.659Z" style="fill:#fff;fill-rule:nonzero;"/><path d="M1404.08,1498.43c-2.806,0 -5.221,-0.378 -7.245,-1.133c-2.024,-0.756 -3.684,-1.66 -4.979,-2.712c-1.295,-1.053 -2.253,-2.091 -2.874,-3.117c-0.62,-1.025 -0.958,-1.808 -1.012,-2.347c-0.053,-0.594 0.135,-1.039 0.567,-1.336c0.432,-0.297 0.837,-0.445 1.214,-0.445l1.215,-0c0.324,-0 0.607,0.053 0.85,0.161c0.243,0.108 0.553,0.405 0.931,0.891c0.701,0.917 1.511,1.794 2.428,2.631c0.918,0.836 2.092,1.498 3.522,1.983c1.43,0.486 3.224,0.729 5.383,0.729c3.238,-0 5.91,-0.621 8.015,-1.862c2.104,-1.241 3.157,-3.076 3.157,-5.505c-0,-1.511 -0.418,-2.725 -1.255,-3.643c-0.837,-0.917 -2.253,-1.727 -4.25,-2.428c-1.997,-0.702 -4.695,-1.431 -8.095,-2.186c-3.4,-0.81 -6.004,-1.781 -7.812,-2.914c-1.808,-1.134 -3.036,-2.443 -3.684,-3.927c-0.647,-1.484 -0.971,-3.089 -0.971,-4.816c-0,-1.889 0.539,-3.738 1.619,-5.546c1.079,-1.808 2.685,-3.292 4.817,-4.452c2.131,-1.161 4.816,-1.741 8.054,-1.741c2.645,0 4.898,0.351 6.76,1.053c1.862,0.701 3.387,1.551 4.574,2.55c1.187,0.998 2.064,1.983 2.631,2.955c0.567,0.971 0.877,1.754 0.931,2.347c0.054,0.54 -0.108,0.972 -0.486,1.295c-0.378,0.324 -0.809,0.486 -1.295,0.486l-1.214,0c-0.432,0 -0.783,-0.094 -1.053,-0.283c-0.27,-0.189 -0.513,-0.445 -0.728,-0.769c-0.54,-0.864 -1.188,-1.673 -1.943,-2.429c-0.756,-0.755 -1.768,-1.363 -3.036,-1.821c-1.268,-0.459 -2.982,-0.688 -5.141,-0.688c-3.238,-0 -5.639,0.661 -7.204,1.983c-1.566,1.322 -2.348,3.009 -2.348,5.06c-0,1.187 0.324,2.226 0.971,3.116c0.648,0.891 1.862,1.7 3.643,2.429c1.781,0.728 4.372,1.497 7.772,2.307c3.454,0.756 6.179,1.687 8.176,2.793c1.997,1.106 3.414,2.415 4.25,3.926c0.837,1.511 1.255,3.292 1.255,5.343c-0,2.159 -0.607,4.156 -1.822,5.991c-1.214,1.835 -3.022,3.305 -5.423,4.412c-2.402,1.106 -5.357,1.659 -8.865,1.659Z" style="fill:#fff;fill-rule:nonzero;"/><path d="M1429.9,1497.62c-0.539,-0 -0.971,-0.162 -1.295,-0.486c-0.324,-0.324 -0.486,-0.756 -0.486,-1.295l0,-38.534c0,-0.54 0.162,-0.972 0.486,-1.295c0.324,-0.324 0.756,-0.486 1.295,-0.486l1.377,-0c0.539,-0 0.971,0.162 1.295,0.486c0.324,0.323 0.486,0.755 0.486,1.295l-0,38.534c-0,0.539 -0.162,0.971 -0.486,1.295c-0.324,0.324 -0.756,0.486 -1.295,0.486l-1.377,-0Zm-0.89,-50.758c-0.54,-0 -0.972,-0.162 -1.295,-0.486c-0.324,-0.324 -0.486,-0.755 -0.486,-1.295l-0,-3.076c-0,-0.54 0.162,-0.985 0.486,-1.336c0.323,-0.351 0.755,-0.526 1.295,-0.526l3.076,-0c0.54,-0 0.985,0.175 1.336,0.526c0.351,0.351 0.526,0.796 0.526,1.336l0,3.076c0,0.54 -0.175,0.971 -0.526,1.295c-0.351,0.324 -0.796,0.486 -1.336,0.486l-3.076,-0Z" style="fill:#fff;fill-rule:nonzero;"/><path d="M1459.77,1498.43c-3.886,0 -7.137,-0.809 -9.755,-2.428c-2.617,-1.62 -4.614,-3.832 -5.99,-6.639c-1.376,-2.806 -2.119,-5.936 -2.226,-9.39c-0.054,-0.81 -0.081,-1.943 -0.081,-3.4c-0,-1.457 0.027,-2.591 0.081,-3.4c0.107,-3.508 0.85,-6.652 2.226,-9.431c1.376,-2.78 3.373,-4.979 5.99,-6.598c2.618,-1.619 5.869,-2.429 9.755,-2.429c3.886,0 7.138,0.81 9.755,2.429c2.618,1.619 4.614,3.818 5.991,6.598c1.376,2.779 2.118,5.923 2.226,9.431c0.054,0.809 0.081,1.943 0.081,3.4c-0,1.457 -0.027,2.59 -0.081,3.4c-0.108,3.454 -0.85,6.584 -2.226,9.39c-1.377,2.807 -3.373,5.019 -5.991,6.639c-2.617,1.619 -5.869,2.428 -9.755,2.428Zm0,-4.695c3.778,-0 6.854,-1.214 9.229,-3.643c2.374,-2.429 3.643,-5.937 3.805,-10.524c0.054,-0.81 0.081,-1.808 0.081,-2.995c-0,-1.188 -0.027,-2.186 -0.081,-2.996c-0.162,-4.641 -1.431,-8.162 -3.805,-10.564c-2.375,-2.402 -5.451,-3.602 -9.229,-3.602c-3.778,-0 -6.854,1.2 -9.229,3.602c-2.374,2.402 -3.642,5.923 -3.804,10.564c-0.054,0.81 -0.081,1.808 -0.081,2.996c-0,1.187 0.027,2.185 0.081,2.995c0.162,4.587 1.43,8.095 3.804,10.524c2.375,2.429 5.451,3.643 9.229,3.643Z" style="fill:#fff;fill-rule:nonzero;"/><path d="M1488.27,1497.62c-0.54,-0 -0.972,-0.162 -1.295,-0.486c-0.324,-0.324 -0.486,-0.756 -0.486,-1.295l-0,-38.534c-0,-0.54 0.162,-0.972 0.486,-1.295c0.323,-0.324 0.755,-0.486 1.295,-0.486l1.376,-0c0.54,-0 0.971,0.162 1.295,0.486c0.324,0.323 0.486,0.755 0.486,1.295l-0,3.805c1.457,-1.889 3.225,-3.427 5.302,-4.615c2.078,-1.187 4.844,-1.781 8.298,-1.781c3.67,0 6.733,0.796 9.188,2.388c2.456,1.593 4.291,3.751 5.505,6.477c1.214,2.725 1.822,5.815 1.822,9.269l-0,22.991c-0,0.539 -0.162,0.971 -0.486,1.295c-0.324,0.324 -0.756,0.486 -1.295,0.486l-1.377,-0c-0.539,-0 -0.971,-0.162 -1.295,-0.486c-0.324,-0.324 -0.486,-0.756 -0.486,-1.295l0,-22.586c0,-4.318 -1.052,-7.704 -3.157,-10.16c-2.104,-2.456 -5.181,-3.683 -9.228,-3.683c-3.832,-0 -6.922,1.227 -9.27,3.683c-2.347,2.456 -3.521,5.842 -3.521,10.16l-0,22.586c-0,0.539 -0.162,0.971 -0.486,1.295c-0.324,0.324 -0.755,0.486 -1.295,0.486l-1.376,-0Z" style="fill:#fff;fill-rule:nonzero;"/><path d="M1545.18,1498.43c-2.806,0 -5.221,-0.378 -7.245,-1.133c-2.024,-0.756 -3.684,-1.66 -4.979,-2.712c-1.295,-1.053 -2.253,-2.091 -2.874,-3.117c-0.62,-1.025 -0.958,-1.808 -1.012,-2.347c-0.054,-0.594 0.135,-1.039 0.567,-1.336c0.432,-0.297 0.836,-0.445 1.214,-0.445l1.215,-0c0.323,-0 0.607,0.053 0.85,0.161c0.242,0.108 0.553,0.405 0.931,0.891c0.701,0.917 1.511,1.794 2.428,2.631c0.918,0.836 2.091,1.498 3.522,1.983c1.43,0.486 3.224,0.729 5.383,0.729c3.238,-0 5.91,-0.621 8.014,-1.862c2.105,-1.241 3.158,-3.076 3.158,-5.505c-0,-1.511 -0.419,-2.725 -1.255,-3.643c-0.837,-0.917 -2.253,-1.727 -4.25,-2.428c-1.997,-0.702 -4.696,-1.431 -8.096,-2.186c-3.4,-0.81 -6.004,-1.781 -7.812,-2.914c-1.808,-1.134 -3.035,-2.443 -3.683,-3.927c-0.648,-1.484 -0.971,-3.089 -0.971,-4.816c-0,-1.889 0.539,-3.738 1.619,-5.546c1.079,-1.808 2.685,-3.292 4.816,-4.452c2.132,-1.161 4.817,-1.741 8.055,-1.741c2.645,0 4.898,0.351 6.76,1.053c1.862,0.701 3.386,1.551 4.574,2.55c1.187,0.998 2.064,1.983 2.631,2.955c0.566,0.971 0.877,1.754 0.931,2.347c0.054,0.54 -0.108,0.972 -0.486,1.295c-0.378,0.324 -0.81,0.486 -1.295,0.486l-1.215,0c-0.431,0 -0.782,-0.094 -1.052,-0.283c-0.27,-0.189 -0.513,-0.445 -0.729,-0.769c-0.539,-0.864 -1.187,-1.673 -1.942,-2.429c-0.756,-0.755 -1.768,-1.363 -3.036,-1.821c-1.268,-0.459 -2.982,-0.688 -5.141,-0.688c-3.238,-0 -5.639,0.661 -7.205,1.983c-1.565,1.322 -2.347,3.009 -2.347,5.06c-0,1.187 0.324,2.226 0.971,3.116c0.648,0.891 1.862,1.7 3.643,2.429c1.781,0.728 4.372,1.497 7.772,2.307c3.454,0.756 6.179,1.687 8.176,2.793c1.997,1.106 3.413,2.415 4.25,3.926c0.837,1.511 1.255,3.292 1.255,5.343c-0,2.159 -0.607,4.156 -1.822,5.991c-1.214,1.835 -3.022,3.305 -5.424,4.412c-2.401,1.106 -5.356,1.659 -8.864,1.659Z" style="fill:#fff;fill-rule:nonzero;"/><path d="M893.016,1580.99c-0.539,-0 -0.971,-0.162 -1.295,-0.486c-0.324,-0.324 -0.486,-0.756 -0.486,-1.295l0,-53.025c0,-0.593 0.162,-1.052 0.486,-1.376c0.324,-0.324 0.756,-0.486 1.295,-0.486l31.572,0c0.594,0 1.052,0.162 1.376,0.486c0.324,0.324 0.486,0.783 0.486,1.376l-0,1.215c-0,0.539 -0.162,0.971 -0.486,1.295c-0.324,0.324 -0.782,0.485 -1.376,0.485l-28.253,0l0,20.644l26.472,-0c0.594,-0 1.052,0.162 1.376,0.485c0.324,0.324 0.486,0.783 0.486,1.377l-0,1.214c-0,0.54 -0.162,0.971 -0.486,1.295c-0.324,0.324 -0.782,0.486 -1.376,0.486l-26.472,-0l0,21.452l28.901,0c0.593,0 1.052,0.162 1.376,0.486c0.324,0.324 0.486,0.783 0.486,1.376l-0,1.215c-0,0.539 -0.162,0.971 -0.486,1.295c-0.324,0.324 -0.783,0.486 -1.376,0.486l-32.22,-0Z" style="fill:#fff;fill-rule:nonzero;"/><path d="M950.331,1581.8c-3.13,0 -5.788,-0.566 -7.974,-1.7c-2.185,-1.133 -3.953,-2.644 -5.302,-4.533c-1.349,-1.889 -2.334,-3.994 -2.955,-6.315c-0.621,-2.32 -0.985,-4.668 -1.093,-7.043c-0.054,-0.809 -0.081,-1.565 -0.081,-2.266c0,-0.702 0.027,-1.457 0.081,-2.267c0.108,-2.375 0.472,-4.722 1.093,-7.043c0.621,-2.321 1.606,-4.425 2.955,-6.314c1.349,-1.889 3.117,-3.4 5.302,-4.534c2.186,-1.133 4.844,-1.7 7.974,-1.7c3.346,0 6.112,0.621 8.298,1.862c2.186,1.242 3.953,2.753 5.302,4.534l0,-19.186c0,-0.54 0.162,-0.972 0.486,-1.296c0.324,-0.323 0.756,-0.485 1.295,-0.485l1.377,-0c0.539,-0 0.971,0.162 1.295,0.485c0.324,0.324 0.486,0.756 0.486,1.296l-0,53.915c-0,0.539 -0.162,0.971 -0.486,1.295c-0.324,0.324 -0.756,0.486 -1.295,0.486l-1.377,-0c-0.539,-0 -0.971,-0.162 -1.295,-0.486c-0.324,-0.324 -0.486,-0.756 -0.486,-1.295l0,-3.805c-1.349,1.835 -3.116,3.359 -5.302,4.574c-2.186,1.214 -4.952,1.821 -8.298,1.821Zm0.486,-4.695c3.076,-0 5.559,-0.729 7.448,-2.186c1.889,-1.457 3.292,-3.278 4.209,-5.464c0.918,-2.186 1.403,-4.385 1.457,-6.598c0.054,-0.809 0.081,-1.862 0.081,-3.157c0,-1.295 -0.027,-2.348 -0.081,-3.157c-0.054,-2.159 -0.553,-4.291 -1.497,-6.396c-0.945,-2.104 -2.361,-3.858 -4.25,-5.262c-1.889,-1.403 -4.345,-2.104 -7.367,-2.104c-3.13,-0 -5.626,0.701 -7.488,2.104c-1.862,1.404 -3.198,3.239 -4.007,5.505c-0.81,2.267 -1.269,4.696 -1.377,7.286c-0.054,1.511 -0.054,3.022 0,4.533c0.108,2.591 0.567,5.02 1.377,7.286c0.809,2.267 2.145,4.102 4.007,5.505c1.862,1.403 4.358,2.105 7.488,2.105Z" style="fill:#fff;fill-rule:nonzero;"/><path d="M995.422,1581.8c-3.67,0 -6.705,-0.796 -9.107,-2.388c-2.402,-1.592 -4.183,-3.764 -5.343,-6.517c-1.16,-2.752 -1.74,-5.828 -1.74,-9.228l-0,-22.991c-0,-0.54 0.162,-0.972 0.485,-1.295c0.324,-0.324 0.756,-0.486 1.296,-0.486l1.376,-0c0.539,-0 0.971,0.162 1.295,0.486c0.324,0.323 0.486,0.755 0.486,1.295l-0,22.586c-0,9.229 4.02,13.843 12.062,13.843c3.832,-0 6.908,-1.228 9.229,-3.683c2.32,-2.456 3.481,-5.843 3.481,-10.16l-0,-22.586c-0,-0.54 0.161,-0.972 0.485,-1.295c0.324,-0.324 0.756,-0.486 1.295,-0.486l1.377,-0c0.539,-0 0.971,0.162 1.295,0.486c0.324,0.323 0.486,0.755 0.486,1.295l-0,38.534c-0,0.539 -0.162,0.971 -0.486,1.295c-0.324,0.324 -0.756,0.486 -1.295,0.486l-1.377,-0c-0.539,-0 -0.971,-0.162 -1.295,-0.486c-0.324,-0.324 -0.485,-0.756 -0.485,-1.295l-0,-3.805c-1.458,1.889 -3.198,3.427 -5.222,4.614c-2.024,1.188 -4.79,1.781 -8.298,1.781Z" style="fill:#fff;fill-rule:nonzero;"/><path d="M1040.51,1581.8c-3.777,0 -6.989,-0.742 -9.633,-2.226c-2.645,-1.484 -4.655,-3.629 -6.031,-6.436c-1.376,-2.806 -2.118,-6.125 -2.226,-9.957c-0.054,-0.81 -0.081,-1.889 -0.081,-3.238c-0,-1.349 0.027,-2.429 0.081,-3.238c0.108,-3.886 0.85,-7.219 2.226,-9.998c1.376,-2.779 3.386,-4.911 6.031,-6.395c2.644,-1.485 5.856,-2.227 9.633,-2.227c2.861,0 5.33,0.392 7.408,1.174c2.077,0.783 3.791,1.808 5.14,3.076c1.349,1.269 2.375,2.658 3.076,4.17c0.702,1.511 1.08,2.995 1.134,4.452c0.054,0.54 -0.108,0.971 -0.486,1.295c-0.378,0.324 -0.81,0.486 -1.295,0.486l-1.134,-0c-0.539,-0 -0.931,-0.121 -1.173,-0.364c-0.243,-0.243 -0.5,-0.688 -0.77,-1.336c-1.133,-3.076 -2.684,-5.222 -4.654,-6.436c-1.97,-1.214 -4.385,-1.821 -7.246,-1.821c-3.67,-0 -6.705,1.12 -9.107,3.359c-2.402,2.24 -3.683,5.896 -3.845,10.969c-0.108,1.889 -0.108,3.778 -0,5.667c0.162,5.073 1.443,8.73 3.845,10.969c2.402,2.24 5.437,3.36 9.107,3.36c2.861,-0 5.276,-0.607 7.246,-1.822c1.97,-1.214 3.521,-3.359 4.654,-6.435c0.27,-0.648 0.527,-1.093 0.77,-1.336c0.242,-0.243 0.634,-0.364 1.173,-0.364l1.134,-0c0.485,-0 0.917,0.162 1.295,0.485c0.378,0.324 0.54,0.756 0.486,1.296c-0.054,1.187 -0.297,2.374 -0.729,3.562c-0.432,1.187 -1.093,2.347 -1.983,3.481c-0.891,1.133 -1.984,2.131 -3.279,2.995c-1.295,0.863 -2.847,1.551 -4.655,2.064c-1.808,0.513 -3.845,0.769 -6.112,0.769Z" style="fill:#fff;fill-rule:nonzero;"/><path d="M1076.86,1581.8c-2.59,0 -4.978,-0.539 -7.164,-1.619c-2.186,-1.079 -3.953,-2.523 -5.302,-4.331c-1.35,-1.808 -2.024,-3.845 -2.024,-6.112c-0,-3.67 1.484,-6.611 4.452,-8.824c2.969,-2.212 6.827,-3.643 11.577,-4.29l12.79,-1.781l0,-2.834c0,-2.86 -0.877,-5.113 -2.631,-6.759c-1.754,-1.646 -4.547,-2.469 -8.378,-2.469c-2.807,-0 -5.074,0.553 -6.801,1.659c-1.727,1.107 -2.914,2.55 -3.562,4.331c-0.269,0.81 -0.782,1.215 -1.538,1.215l-1.295,-0c-0.648,-0 -1.106,-0.176 -1.376,-0.527c-0.27,-0.35 -0.405,-0.769 -0.405,-1.254c0,-0.756 0.283,-1.7 0.85,-2.834c0.567,-1.133 1.444,-2.253 2.631,-3.359c1.187,-1.107 2.726,-2.038 4.614,-2.793c1.889,-0.756 4.183,-1.134 6.882,-1.134c3.184,0 5.815,0.432 7.892,1.296c2.078,0.863 3.697,1.983 4.858,3.359c1.16,1.376 1.983,2.901 2.469,4.574c0.485,1.673 0.728,3.319 0.728,4.938l0,26.958c0,0.539 -0.162,0.971 -0.485,1.295c-0.324,0.324 -0.756,0.486 -1.296,0.486l-1.376,-0c-0.54,-0 -0.971,-0.162 -1.295,-0.486c-0.324,-0.324 -0.486,-0.756 -0.486,-1.295l0,-3.805c-0.647,0.971 -1.565,1.943 -2.752,2.914c-1.188,0.972 -2.712,1.795 -4.574,2.469c-1.862,0.675 -4.196,1.012 -7.003,1.012Zm0.81,-4.695c2.483,-0 4.749,-0.54 6.8,-1.619c2.051,-1.08 3.683,-2.739 4.898,-4.979c1.214,-2.239 1.821,-5.059 1.821,-8.459l0,-2.753l-10.443,1.457c-4.425,0.594 -7.771,1.619 -10.038,3.077c-2.267,1.457 -3.4,3.292 -3.4,5.504c-0,1.781 0.513,3.239 1.538,4.372c1.025,1.133 2.334,1.983 3.926,2.55c1.592,0.567 3.225,0.85 4.898,0.85Z" style="fill:#fff;fill-rule:nonzero;"/><path d="M1120.25,1580.99c-2.806,-0 -5.019,-0.594 -6.638,-1.781c-1.619,-1.188 -2.752,-2.807 -3.4,-4.857c-0.647,-2.051 -0.971,-4.345 -0.971,-6.882l-0,-23.881l-6.315,0c-0.539,0 -0.971,-0.162 -1.295,-0.486c-0.324,-0.323 -0.486,-0.755 -0.486,-1.295l0,-1.133c0,-0.54 0.162,-0.972 0.486,-1.295c0.324,-0.324 0.756,-0.486 1.295,-0.486l6.315,-0l-0,-13.6c-0,-0.54 0.162,-0.972 0.486,-1.296c0.323,-0.323 0.755,-0.485 1.295,-0.485l1.376,-0c0.54,-0 0.971,0.162 1.295,0.485c0.324,0.324 0.486,0.756 0.486,1.296l-0,13.6l10.038,-0c0.54,-0 0.972,0.162 1.295,0.486c0.324,0.323 0.486,0.755 0.486,1.295l0,1.133c0,0.54 -0.162,0.972 -0.486,1.295c-0.323,0.324 -0.755,0.486 -1.295,0.486l-10.038,0l-0,23.558c-0,2.86 0.472,5.1 1.417,6.719c0.944,1.619 2.631,2.428 5.059,2.428l4.372,0c0.539,0 0.971,0.162 1.295,0.486c0.324,0.324 0.486,0.756 0.486,1.295l-0,1.134c-0,0.539 -0.162,0.971 -0.486,1.295c-0.324,0.324 -0.756,0.486 -1.295,0.486l-4.777,-0Z" style="fill:#fff;fill-rule:nonzero;"/><path d="M1134.5,1580.99c-0.539,-0 -0.971,-0.162 -1.295,-0.486c-0.324,-0.324 -0.486,-0.756 -0.486,-1.295l0,-38.534c0,-0.54 0.162,-0.972 0.486,-1.295c0.324,-0.324 0.756,-0.486 1.295,-0.486l1.376,-0c0.54,-0 0.972,0.162 1.296,0.486c0.324,0.323 0.485,0.755 0.485,1.295l0,38.534c0,0.539 -0.161,0.971 -0.485,1.295c-0.324,0.324 -0.756,0.486 -1.296,0.486l-1.376,-0Zm-0.89,-50.758c-0.54,-0 -0.972,-0.162 -1.295,-0.486c-0.324,-0.324 -0.486,-0.755 -0.486,-1.295l-0,-3.076c-0,-0.54 0.162,-0.985 0.486,-1.336c0.323,-0.351 0.755,-0.526 1.295,-0.526l3.076,-0c0.54,-0 0.985,0.175 1.336,0.526c0.351,0.351 0.526,0.796 0.526,1.336l-0,3.076c-0,0.54 -0.175,0.971 -0.526,1.295c-0.351,0.324 -0.796,0.486 -1.336,0.486l-3.076,-0Z" style="fill:#fff;fill-rule:nonzero;"/><path d="M1164.37,1581.8c-3.886,0 -7.137,-0.809 -9.755,-2.428c-2.617,-1.619 -4.614,-3.832 -5.99,-6.639c-1.377,-2.806 -2.119,-5.936 -2.227,-9.39c-0.054,-0.81 -0.081,-1.943 -0.081,-3.4c0,-1.457 0.027,-2.591 0.081,-3.4c0.108,-3.508 0.85,-6.652 2.227,-9.431c1.376,-2.78 3.373,-4.979 5.99,-6.598c2.618,-1.619 5.869,-2.429 9.755,-2.429c3.886,0 7.137,0.81 9.755,2.429c2.617,1.619 4.614,3.818 5.991,6.598c1.376,2.779 2.118,5.923 2.226,9.431c0.054,0.809 0.081,1.943 0.081,3.4c-0,1.457 -0.027,2.59 -0.081,3.4c-0.108,3.454 -0.85,6.584 -2.226,9.39c-1.377,2.807 -3.374,5.02 -5.991,6.639c-2.618,1.619 -5.869,2.428 -9.755,2.428Zm0,-4.695c3.778,-0 6.854,-1.214 9.229,-3.643c2.374,-2.429 3.643,-5.937 3.805,-10.524c0.054,-0.809 0.081,-1.808 0.081,-2.995c-0,-1.188 -0.027,-2.186 -0.081,-2.995c-0.162,-4.642 -1.431,-8.163 -3.805,-10.565c-2.375,-2.402 -5.451,-3.602 -9.229,-3.602c-3.778,-0 -6.854,1.2 -9.229,3.602c-2.374,2.402 -3.643,5.923 -3.804,10.565c-0.054,0.809 -0.081,1.807 -0.081,2.995c-0,1.187 0.027,2.186 0.081,2.995c0.161,4.587 1.43,8.095 3.804,10.524c2.375,2.429 5.451,3.643 9.229,3.643Z" style="fill:#fff;fill-rule:nonzero;"/><path d="M1192.87,1580.99c-0.54,-0 -0.972,-0.162 -1.296,-0.486c-0.323,-0.324 -0.485,-0.756 -0.485,-1.295l-0,-38.534c-0,-0.54 0.162,-0.972 0.485,-1.295c0.324,-0.324 0.756,-0.486 1.296,-0.486l1.376,-0c0.54,-0 0.971,0.162 1.295,0.486c0.324,0.323 0.486,0.755 0.486,1.295l-0,3.805c1.457,-1.889 3.225,-3.427 5.302,-4.615c2.078,-1.187 4.844,-1.781 8.298,-1.781c3.67,0 6.733,0.796 9.188,2.389c2.456,1.592 4.291,3.75 5.505,6.476c1.214,2.725 1.822,5.815 1.822,9.269l-0,22.991c-0,0.539 -0.162,0.971 -0.486,1.295c-0.324,0.324 -0.756,0.486 -1.295,0.486l-1.377,-0c-0.539,-0 -0.971,-0.162 -1.295,-0.486c-0.324,-0.324 -0.486,-0.756 -0.486,-1.295l0,-22.586c0,-4.318 -1.052,-7.704 -3.157,-10.16c-2.105,-2.456 -5.181,-3.683 -9.228,-3.683c-3.832,-0 -6.922,1.227 -9.27,3.683c-2.347,2.456 -3.521,5.842 -3.521,10.16l-0,22.586c-0,0.539 -0.162,0.971 -0.486,1.295c-0.324,0.324 -0.755,0.486 -1.295,0.486l-1.376,-0Z" style="fill:#fff;fill-rule:nonzero;"/></g></g><defs><linearGradient id="_Linear1" x1="0" y1="0" x2="1" y2="0" gradientUnits="userSpaceOnUse" gradientTransform="matrix(37.4599,-1556.28,-376.249,-9.05637,741.499,1755.78)"><stop offset="0" style="stop-color:#00f275;stop-opacity:0.67"/><stop offset="0.1" style="stop-color:#27f7a7;stop-opacity:0.67"/><stop offset="0.2" style="stop-color:#50fcdc;stop-opacity:0.67"/><stop offset="0.47" style="stop-color:#64fff5;stop-opacity:0.67"/><stop offset="0.74" style="stop-color:#66ecf7;stop-opacity:0.67"/><stop offset="1" style="stop-color:#6bb3ff;stop-opacity:0.67"/></linearGradient></defs></svg>