<?xml version="1.0" encoding="UTF-8" standalone="no" ?>
<!DOCTYPE svg PUBLIC "-//W3C//DTD SVG 1.1//EN" "http://www.w3.org/Graphics/SVG/1.1/DTD/svg11.dtd">
<svg xmlns="http://www.w3.org/2000/svg" xmlns:xlink="http://www.w3.org/1999/xlink" version="1.1" width="1080" height="1080" viewBox="0 0 1080 1080" xml:space="preserve">
<desc>Created with Fabric.js 5.2.4</desc>
<defs>
</defs>
<g transform="matrix(1 0 0 1 540 540)" id="dd66fd0a-a992-431a-a710-2b034cf504cd"  >
<rect style="stroke: none; stroke-width: 1; stroke-dasharray: none; stroke-linecap: butt; stroke-dashoffset: 0; stroke-linejoin: miter; stroke-miterlimit: 4; fill: rgb(255,255,255); fill-rule: nonzero; opacity: 1; visibility: hidden;" vector-effect="non-scaling-stroke"  x="-540" y="-540" rx="0" ry="0" width="1080" height="1080" />
</g>
<g transform="matrix(1 0 0 1 540 540)" id="f587503a-7abe-4d98-89f1-a0bd02922e86"  >
</g>
<g transform="matrix(2.58 0 0 2.58 538.43 538.44)" id="Layer_1"  >
<polygon style="stroke: none; stroke-width: 1; stroke-dasharray: none; stroke-linecap: butt; stroke-dashoffset: 0; stroke-linejoin: miter; stroke-miterlimit: 4; fill: rgb(255,255,255); fill-rule: evenodd; opacity: 1;"  points="32.62,-155.6 32.62,-58.06 127.78,-91.58 60.42,-20.07 156.21,14.12 57.05,21.72 111.48,109.94 26.85,53.73 9.13,155.6 -18.46,65.02 -88.29,128.74 -51.24,35.2 -154.54,36.88 -67.46,-5.7 -156.21,-65.83 -50.98,-45.07 -83.28,-146.33 -10.85,-65.96 32.62,-155.6 " />
</g>
</svg>