<?xml version="1.0" encoding="UTF-8" standalone="no"?><!DOCTYPE svg PUBLIC "-//W3C//DTD SVG 1.1//EN" "http://www.w3.org/Graphics/SVG/1.1/DTD/svg11.dtd"><svg width="100%" height="100%" viewBox="0 0 2129 3447" version="1.1" xmlns="http://www.w3.org/2000/svg" xmlns:xlink="http://www.w3.org/1999/xlink" xml:space="preserve" xmlns:serif="http://www.serif.com/" style="fill-rule:evenodd;clip-rule:evenodd;stroke-linejoin:round;stroke-miterlimit:2;"><g><path d="M340.877,1545.4l-19.699,1903.95l662.031,-1228.06l16.658,-2221.29l-658.99,1545.4Z" style="fill:url(#_Linear1);"/><g transform="matrix(1.78017,0,0,1.78017,-3383.35,-297.25)"><text x="1912.41px" y="991.076px" style="font-family:'ActionSans-Regular', 'Action Sans';font-size:246.443px;fill:#fff;">S<tspan x="2053.87px " y="991.076px ">O</tspan></text><text x="2237.47px" y="991.076px" style="font-family:'ActionSans-Regular', 'Action Sans';font-size:246.443px;fill:#fff;">C</text><text x="2417.12px" y="991.076px" style="font-family:'ActionSans-Regular', 'Action Sans';font-size:246.443px;fill:#fff;">I<tspan x="2468.63px 2623.64px " y="991.076px 991.076px ">AL</tspan></text><text x="1882.84px" y="1201.45px" style="font-family:'ActionSans-Regular', 'Action Sans';font-size:246.443px;fill:#fff;">M</text><text x="2074.32px" y="1201.45px" style="font-family:'ActionSans-Regular', 'Action Sans';font-size:246.443px;fill:#fff;">I<tspan x="2125.83px " y="1201.45px ">S</tspan></text><text x="2267.29px" y="1201.45px" style="font-family:'ActionSans-Regular', 'Action Sans';font-size:246.443px;fill:#fff;">S</text><text x="2415.64px" y="1201.45px" style="font-family:'ActionSans-Regular', 'Action Sans';font-size:246.443px;fill:#fff;">I<tspan x="2467.15px 2650.75px " y="1201.45px 1201.45px ">ON</tspan></text><text x="2006.06px" y="1411.82px" style="font-family:'ActionSans-Regular', 'Action Sans';font-size:246.443px;fill:#fff;">A</text><text x="2161.07px" y="1411.82px" style="font-family:'ActionSans-Regular', 'Action Sans';font-size:246.443px;fill:#fff;">L</text><text x="2290.95px" y="1411.82px" style="font-family:'ActionSans-Regular', 'Action Sans';font-size:246.443px;fill:#fff;">L</text><text x="2414.91px" y="1411.82px" style="font-family:'ActionSans-Regular', 'Action Sans';font-size:246.443px;fill:#fff;">I<tspan x="2466.41px 2621.43px 2789.5px 2967.92px " y="1411.82px 1411.82px 1411.82px 1411.82px ">ANCE</tspan></text></g></g><g id="_-Transforming----Health-Pr-" serif:id="(Transforming ¶  Health Pr)"><path d="M1020.39,2510.83c-1.026,0 -1.847,-0.308 -2.463,-0.923c-0.616,-0.616 -0.924,-1.437 -0.924,-2.464l0,-95.137l-30.481,0c-1.026,0 -1.847,-0.308 -2.463,-0.924c-0.615,-0.615 -0.923,-1.436 -0.923,-2.463l-0,-2.309c-0,-1.129 0.308,-2.001 0.923,-2.617c0.616,-0.616 1.437,-0.924 2.463,-0.924l70.507,0c1.129,0 2.001,0.308 2.617,0.924c0.616,0.616 0.923,1.488 0.923,2.617l0,2.309c0,1.027 -0.307,1.848 -0.923,2.463c-0.616,0.616 -1.488,0.924 -2.617,0.924l-30.327,0l-0,95.137c-0,1.027 -0.308,1.848 -0.924,2.464c-0.616,0.615 -1.488,0.923 -2.617,0.923l-2.771,0Z" style="fill:#fff;fill-rule:nonzero;"/><path d="M1061.49,2510.83c-1.026,0 -1.847,-0.308 -2.463,-0.923c-0.616,-0.616 -0.924,-1.437 -0.924,-2.464l0,-73.123c0,-1.026 0.308,-1.873 0.924,-2.54c0.616,-0.667 1.437,-1.001 2.463,-1.001l2.463,0c1.027,0 1.873,0.334 2.54,1.001c0.667,0.667 1.001,1.514 1.001,2.54l-0,7.081c1.847,-3.592 4.516,-6.26 8.005,-8.005c3.489,-1.744 7.8,-2.617 12.931,-2.617l5.696,0c1.027,0 1.848,0.308 2.463,0.924c0.616,0.616 0.924,1.437 0.924,2.463l-0,2.155c-0,1.027 -0.308,1.848 -0.924,2.463c-0.615,0.616 -1.436,0.924 -2.463,0.924l-6.619,0c-6.158,0 -11.033,1.796 -14.625,5.388c-3.592,3.592 -5.388,8.467 -5.388,14.625l-0,47.722c-0,1.027 -0.334,1.848 -1.001,2.464c-0.667,0.615 -1.513,0.923 -2.54,0.923l-2.463,0Z" style="fill:#fff;fill-rule:nonzero;"/><path d="M1127.38,2512.37c-4.926,-0 -9.467,-1.027 -13.624,-3.079c-4.156,-2.053 -7.518,-4.798 -10.083,-8.236c-2.566,-3.438 -3.849,-7.313 -3.849,-11.623c0,-6.979 2.822,-12.572 8.467,-16.78c5.645,-4.208 12.983,-6.927 22.014,-8.159l24.323,-3.387l0,-5.388c0,-5.439 -1.668,-9.724 -5.003,-12.854c-3.335,-3.13 -8.646,-4.695 -15.933,-4.695c-5.337,-0 -9.647,1.052 -12.931,3.156c-3.285,2.103 -5.542,4.849 -6.774,8.236c-0.513,1.539 -1.488,2.309 -2.925,2.309l-2.463,-0c-1.232,-0 -2.104,-0.334 -2.617,-1.001c-0.513,-0.667 -0.77,-1.462 -0.77,-2.386c0,-1.437 0.539,-3.233 1.617,-5.388c1.077,-2.155 2.745,-4.285 5.003,-6.389c2.258,-2.104 5.183,-3.874 8.775,-5.311c3.592,-1.437 7.953,-2.155 13.085,-2.155c6.055,-0 11.058,0.821 15.009,2.463c3.952,1.642 7.03,3.772 9.237,6.389c2.207,2.617 3.772,5.516 4.695,8.698c0.924,3.181 1.386,6.311 1.386,9.39l-0,51.263c-0,1.027 -0.308,1.848 -0.924,2.464c-0.616,0.615 -1.437,0.923 -2.463,0.923l-2.617,0c-1.026,0 -1.847,-0.308 -2.463,-0.923c-0.616,-0.616 -0.924,-1.437 -0.924,-2.464l0,-7.235c-1.231,1.847 -2.976,3.695 -5.234,5.542c-2.258,1.847 -5.157,3.413 -8.698,4.695c-3.54,1.283 -7.979,1.925 -13.316,1.925Zm1.54,-8.929c4.721,-0 9.031,-1.026 12.931,-3.079c3.9,-2.053 7.004,-5.208 9.313,-9.468c2.31,-4.259 3.464,-9.621 3.464,-16.087l0,-5.234l-19.859,2.771c-8.415,1.129 -14.778,3.079 -19.089,5.85c-4.31,2.771 -6.465,6.26 -6.465,10.468c-0,3.387 0.975,6.158 2.925,8.313c1.95,2.155 4.438,3.772 7.466,4.85c3.028,1.077 6.132,1.616 9.314,1.616Z" style="fill:#fff;fill-rule:nonzero;"/><path d="M1187.11,2510.83c-1.026,0 -1.847,-0.308 -2.463,-0.923c-0.615,-0.616 -0.923,-1.437 -0.923,-2.464l-0,-73.277c-0,-1.026 0.308,-1.847 0.923,-2.463c0.616,-0.616 1.437,-0.924 2.463,-0.924l2.617,0c1.027,0 1.848,0.308 2.464,0.924c0.615,0.616 0.923,1.437 0.923,2.463l0,7.235c2.771,-3.592 6.132,-6.516 10.084,-8.774c3.951,-2.258 9.211,-3.387 15.779,-3.387c6.979,-0 12.803,1.514 17.472,4.541c4.67,3.028 8.159,7.133 10.469,12.316c2.309,5.183 3.463,11.058 3.463,17.626l0,43.72c0,1.027 -0.308,1.848 -0.923,2.464c-0.616,0.615 -1.437,0.923 -2.463,0.923l-2.617,0c-1.027,0 -1.848,-0.308 -2.464,-0.923c-0.615,-0.616 -0.923,-1.437 -0.923,-2.464l-0,-42.95c-0,-8.21 -2.001,-14.65 -6.004,-19.32c-4.003,-4.67 -9.852,-7.004 -17.55,-7.004c-7.286,-0 -13.162,2.334 -17.626,7.004c-4.465,4.67 -6.697,11.11 -6.697,19.32l0,42.95c0,1.027 -0.308,1.848 -0.923,2.464c-0.616,0.615 -1.437,0.923 -2.464,0.923l-2.617,0Z" style="fill:#fff;fill-rule:nonzero;"/><path d="M1295.33,2512.37c-5.337,-0 -9.929,-0.719 -13.778,-2.156c-3.849,-1.436 -7.004,-3.155 -9.468,-5.157c-2.463,-2.001 -4.284,-3.977 -5.465,-5.927c-1.18,-1.949 -1.821,-3.438 -1.924,-4.464c-0.102,-1.129 0.257,-1.976 1.078,-2.54c0.821,-0.564 1.591,-0.847 2.309,-0.847l2.309,0c0.616,0 1.155,0.103 1.616,0.308c0.462,0.205 1.052,0.77 1.771,1.694c1.334,1.744 2.873,3.412 4.618,5.003c1.745,1.591 3.977,2.848 6.697,3.771c2.719,0.924 6.132,1.386 10.237,1.386c6.158,-0 11.238,-1.18 15.24,-3.541c4.003,-2.36 6.004,-5.85 6.004,-10.468c0,-2.874 -0.795,-5.183 -2.386,-6.927c-1.591,-1.745 -4.285,-3.285 -8.082,-4.619c-3.797,-1.334 -8.929,-2.719 -15.394,-4.156c-6.466,-1.54 -11.418,-3.387 -14.856,-5.542c-3.438,-2.155 -5.773,-4.644 -7.004,-7.467c-1.232,-2.822 -1.848,-5.875 -1.848,-9.159c0,-3.592 1.027,-7.107 3.079,-10.545c2.053,-3.438 5.106,-6.261 9.16,-8.467c4.054,-2.207 9.16,-3.31 15.317,-3.31c5.029,-0 9.314,0.667 12.855,2.001c3.54,1.334 6.44,2.951 8.697,4.849c2.258,1.899 3.926,3.772 5.004,5.619c1.077,1.848 1.667,3.336 1.77,4.465c0.103,1.026 -0.205,1.847 -0.924,2.463c-0.718,0.616 -1.539,0.924 -2.463,0.924l-2.309,-0c-0.821,-0 -1.488,-0.18 -2.001,-0.539c-0.513,-0.359 -0.975,-0.847 -1.386,-1.463c-1.026,-1.642 -2.258,-3.181 -3.694,-4.618c-1.437,-1.437 -3.361,-2.591 -5.773,-3.464c-2.412,-0.872 -5.671,-1.308 -9.776,-1.308c-6.157,-0 -10.724,1.257 -13.701,3.771c-2.976,2.515 -4.464,5.722 -4.464,9.622c-0,2.258 0.616,4.233 1.847,5.927c1.232,1.693 3.541,3.232 6.928,4.618c3.386,1.385 8.313,2.848 14.778,4.387c6.569,1.437 11.751,3.208 15.549,5.311c3.797,2.104 6.491,4.593 8.082,7.467c1.59,2.873 2.386,6.26 2.386,10.16c-0,4.105 -1.155,7.902 -3.464,11.392c-2.309,3.489 -5.747,6.286 -10.314,8.39c-4.567,2.104 -10.186,3.156 -16.857,3.156Z" style="fill:#fff;fill-rule:nonzero;"/><path d="M1351.99,2510.83c-1.026,0 -1.847,-0.308 -2.463,-0.923c-0.615,-0.616 -0.923,-1.437 -0.923,-2.464l-0,-67.735l-13.701,0c-1.027,0 -1.848,-0.308 -2.463,-0.924c-0.616,-0.615 -0.924,-1.436 -0.924,-2.463l-0,-2.155c-0,-1.026 0.308,-1.847 0.924,-2.463c0.615,-0.616 1.436,-0.924 2.463,-0.924l13.701,0l-0,-8.774c-0,-4.619 0.641,-8.827 1.924,-12.624c1.283,-3.797 3.592,-6.825 6.927,-9.083c3.336,-2.257 8.134,-3.386 14.394,-3.386l8.005,-0c1.027,-0 1.848,0.308 2.463,0.923c0.616,0.616 0.924,1.437 0.924,2.463l0,2.156c0,1.026 -0.308,1.847 -0.924,2.463c-0.615,0.616 -1.436,0.923 -2.463,0.923l-8.005,0c-5.439,0 -9.108,1.463 -11.007,4.388c-1.898,2.925 -2.848,7.107 -2.848,12.546l0,8.005l20.321,0c1.026,0 1.847,0.308 2.463,0.924c0.616,0.616 0.924,1.437 0.924,2.463l-0,2.155c-0,1.027 -0.308,1.848 -0.924,2.463c-0.616,0.616 -1.437,0.924 -2.463,0.924l-20.321,0l0,67.735c0,1.027 -0.308,1.848 -0.923,2.464c-0.616,0.615 -1.437,0.923 -2.464,0.923l-2.617,0Z" style="fill:#fff;fill-rule:nonzero;"/><path d="M1420.64,2512.37c-7.389,-0 -13.572,-1.54 -18.55,-4.619c-4.977,-3.079 -8.775,-7.286 -11.392,-12.623c-2.617,-5.337 -4.028,-11.289 -4.233,-17.858c-0.103,-1.539 -0.154,-3.694 -0.154,-6.465c-0,-2.771 0.051,-4.926 0.154,-6.466c0.205,-6.671 1.616,-12.649 4.233,-17.934c2.617,-5.286 6.415,-9.468 11.392,-12.547c4.978,-3.079 11.161,-4.618 18.55,-4.618c7.39,-0 13.573,1.539 18.551,4.618c4.977,3.079 8.774,7.261 11.392,12.547c2.617,5.285 4.028,11.263 4.233,17.934c0.103,1.54 0.154,3.695 0.154,6.466c-0,2.771 -0.051,4.926 -0.154,6.465c-0.205,6.569 -1.616,12.521 -4.233,17.858c-2.618,5.337 -6.415,9.544 -11.392,12.623c-4.978,3.079 -11.161,4.619 -18.551,4.619Zm0,-8.929c7.184,-0 13.034,-2.309 17.55,-6.928c4.516,-4.618 6.927,-11.289 7.235,-20.012c0.103,-1.54 0.154,-3.438 0.154,-5.696c0,-2.258 -0.051,-4.157 -0.154,-5.696c-0.308,-8.826 -2.719,-15.523 -7.235,-20.09c-4.516,-4.567 -10.366,-6.85 -17.55,-6.85c-7.184,-0 -13.034,2.283 -17.549,6.85c-4.516,4.567 -6.928,11.264 -7.236,20.09c-0.102,1.539 -0.154,3.438 -0.154,5.696c0,2.258 0.052,4.156 0.154,5.696c0.308,8.723 2.72,15.394 7.236,20.012c4.515,4.619 10.365,6.928 17.549,6.928Z" style="fill:#fff;fill-rule:nonzero;"/><path d="M1474.83,2510.83c-1.027,0 -1.848,-0.308 -2.463,-0.923c-0.616,-0.616 -0.924,-1.437 -0.924,-2.464l-0,-73.123c-0,-1.026 0.308,-1.873 0.924,-2.54c0.615,-0.667 1.436,-1.001 2.463,-1.001l2.463,0c1.026,0 1.873,0.334 2.54,1.001c0.667,0.667 1,1.514 1,2.54l0,7.081c1.848,-3.592 4.516,-6.26 8.006,-8.005c3.489,-1.744 7.799,-2.617 12.931,-2.617l5.696,0c1.026,0 1.847,0.308 2.463,0.924c0.616,0.616 0.924,1.437 0.924,2.463l-0,2.155c-0,1.027 -0.308,1.848 -0.924,2.463c-0.616,0.616 -1.437,0.924 -2.463,0.924l-6.62,0c-6.158,0 -11.032,1.796 -14.624,5.388c-3.592,3.592 -5.389,8.467 -5.389,14.625l0,47.722c0,1.027 -0.333,1.848 -1,2.464c-0.667,0.615 -1.514,0.923 -2.54,0.923l-2.463,0Z" style="fill:#fff;fill-rule:nonzero;"/><path d="M1523.79,2510.83c-1.026,0 -1.847,-0.308 -2.463,-0.923c-0.616,-0.616 -0.924,-1.437 -0.924,-2.464l0,-73.277c0,-1.026 0.308,-1.847 0.924,-2.463c0.616,-0.616 1.437,-0.924 2.463,-0.924l2.617,0c1.026,0 1.847,0.308 2.463,0.924c0.616,0.616 0.924,1.437 0.924,2.463l-0,5.388c2.565,-3.284 5.619,-5.824 9.159,-7.62c3.541,-1.796 7.826,-2.694 12.855,-2.694c11.494,-0 19.704,4.824 24.631,14.471c2.36,-4.413 5.824,-7.928 10.391,-10.546c4.567,-2.617 9.827,-3.925 15.779,-3.925c5.44,-0 10.34,1.257 14.702,3.772c4.362,2.514 7.8,6.234 10.314,11.16c2.514,4.927 3.772,11.084 3.772,18.474l-0,44.797c-0,1.027 -0.308,1.848 -0.924,2.464c-0.616,0.615 -1.437,0.923 -2.463,0.923l-2.617,0c-1.026,0 -1.847,-0.308 -2.463,-0.923c-0.616,-0.616 -0.924,-1.437 -0.924,-2.464l0,-43.258c0,-6.773 -0.975,-12.033 -2.925,-15.779c-1.95,-3.746 -4.516,-6.389 -7.697,-7.928c-3.182,-1.54 -6.62,-2.309 -10.314,-2.309c-3.079,-0 -6.209,0.769 -9.391,2.309c-3.181,1.539 -5.824,4.182 -7.928,7.928c-2.104,3.746 -3.156,9.006 -3.156,15.779l0,43.258c0,1.027 -0.308,1.848 -0.923,2.464c-0.616,0.615 -1.437,0.923 -2.464,0.923l-2.617,0c-1.026,0 -1.847,-0.308 -2.463,-0.923c-0.616,-0.616 -0.923,-1.437 -0.923,-2.464l-0,-43.258c-0,-6.773 -1.027,-12.033 -3.079,-15.779c-2.053,-3.746 -4.67,-6.389 -7.851,-7.928c-3.182,-1.54 -6.517,-2.309 -10.007,-2.309c-3.079,-0 -6.209,0.769 -9.39,2.309c-3.182,1.539 -5.825,4.182 -7.928,7.928c-2.104,3.746 -3.156,8.954 -3.156,15.625l-0,43.412c-0,1.027 -0.308,1.848 -0.924,2.464c-0.616,0.615 -1.437,0.923 -2.463,0.923l-2.617,0Z" style="fill:#fff;fill-rule:nonzero;"/><path d="M1654.33,2510.83c-1.026,0 -1.847,-0.308 -2.463,-0.923c-0.616,-0.616 -0.923,-1.437 -0.923,-2.464l-0,-73.277c-0,-1.026 0.307,-1.847 0.923,-2.463c0.616,-0.616 1.437,-0.924 2.463,-0.924l2.617,0c1.027,0 1.848,0.308 2.464,0.924c0.615,0.616 0.923,1.437 0.923,2.463l0,73.277c0,1.027 -0.308,1.848 -0.923,2.464c-0.616,0.615 -1.437,0.923 -2.464,0.923l-2.617,0Zm-1.693,-96.523c-1.026,0 -1.847,-0.308 -2.463,-0.923c-0.616,-0.616 -0.924,-1.437 -0.924,-2.463l0,-5.85c0,-1.027 0.308,-1.873 0.924,-2.54c0.616,-0.667 1.437,-1.001 2.463,-1.001l5.85,0c1.026,0 1.873,0.334 2.54,1.001c0.667,0.667 1.001,1.513 1.001,2.54l-0,5.85c-0,1.026 -0.334,1.847 -1.001,2.463c-0.667,0.615 -1.514,0.923 -2.54,0.923l-5.85,0Z" style="fill:#fff;fill-rule:nonzero;"/><path d="M1684.04,2510.83c-1.027,0 -1.848,-0.308 -2.464,-0.923c-0.615,-0.616 -0.923,-1.437 -0.923,-2.464l-0,-73.277c-0,-1.026 0.308,-1.847 0.923,-2.463c0.616,-0.616 1.437,-0.924 2.464,-0.924l2.617,0c1.026,0 1.847,0.308 2.463,0.924c0.615,0.616 0.923,1.437 0.923,2.463l0,7.235c2.771,-3.592 6.132,-6.516 10.084,-8.774c3.951,-2.258 9.211,-3.387 15.779,-3.387c6.979,-0 12.803,1.514 17.473,4.541c4.669,3.028 8.159,7.133 10.468,12.316c2.309,5.183 3.464,11.058 3.464,17.626l-0,43.72c-0,1.027 -0.308,1.848 -0.924,2.464c-0.616,0.615 -1.437,0.923 -2.463,0.923l-2.617,0c-1.027,0 -1.848,-0.308 -2.463,-0.923c-0.616,-0.616 -0.924,-1.437 -0.924,-2.464l-0,-42.95c-0,-8.21 -2.001,-14.65 -6.004,-19.32c-4.002,-4.67 -9.852,-7.004 -17.549,-7.004c-7.287,-0 -13.163,2.334 -17.627,7.004c-4.464,4.67 -6.697,11.11 -6.697,19.32l0,42.95c0,1.027 -0.308,1.848 -0.923,2.464c-0.616,0.615 -1.437,0.923 -2.463,0.923l-2.617,0Z" style="fill:#fff;fill-rule:nonzero;"/><path d="M1796.73,2544.69c-6.569,-0 -11.931,-0.872 -16.088,-2.617c-4.156,-1.745 -7.389,-3.874 -9.698,-6.389c-2.309,-2.514 -3.926,-5.029 -4.849,-7.543c-0.924,-2.514 -1.437,-4.541 -1.54,-6.081c-0.102,-1.026 0.205,-1.873 0.924,-2.54c0.718,-0.667 1.539,-1.001 2.463,-1.001l2.155,0c0.821,0 1.54,0.18 2.155,0.539c0.616,0.359 1.129,1.257 1.54,2.694c0.616,1.642 1.616,3.567 3.002,5.773c1.385,2.207 3.592,4.131 6.619,5.773c3.028,1.642 7.21,2.463 12.547,2.463c5.644,0 10.365,-0.718 14.163,-2.155c3.797,-1.437 6.696,-3.977 8.697,-7.62c2.002,-3.644 3.002,-8.698 3.002,-15.164l0,-10.622c-2.565,3.489 -5.926,6.389 -10.083,8.698c-4.156,2.309 -9.416,3.464 -15.779,3.464c-5.953,-0 -11.007,-1.078 -15.164,-3.233c-4.156,-2.155 -7.517,-5.029 -10.083,-8.621c-2.566,-3.592 -4.464,-7.595 -5.696,-12.008c-1.231,-4.413 -1.899,-8.877 -2.001,-13.393c-0.103,-2.873 -0.103,-5.747 -0,-8.621c0.102,-4.515 0.77,-8.98 2.001,-13.393c1.232,-4.413 3.13,-8.415 5.696,-12.007c2.566,-3.592 5.927,-6.466 10.083,-8.621c4.157,-2.155 9.211,-3.233 15.164,-3.233c6.363,-0 11.623,1.18 15.779,3.541c4.157,2.36 7.518,5.234 10.083,8.62l0,-7.081c0,-1.026 0.308,-1.873 0.924,-2.54c0.616,-0.667 1.437,-1.001 2.463,-1.001l2.463,0c1.027,0 1.873,0.334 2.54,1.001c0.667,0.667 1.001,1.514 1.001,2.54l-0,74.971c-0,6.568 -0.975,12.521 -2.925,17.857c-1.95,5.337 -5.414,9.596 -10.391,12.778c-4.978,3.181 -12.033,4.772 -21.167,4.772Zm0.153,-41.257c5.85,-0 10.571,-1.386 14.163,-4.157c3.592,-2.771 6.235,-6.234 7.928,-10.391c1.694,-4.156 2.643,-8.338 2.848,-12.546c0.103,-1.54 0.154,-3.387 0.154,-5.542c0,-2.155 -0.051,-4.003 -0.154,-5.542c-0.205,-4.208 -1.154,-8.39 -2.848,-12.547c-1.693,-4.156 -4.336,-7.62 -7.928,-10.391c-3.592,-2.771 -8.313,-4.156 -14.163,-4.156c-5.952,-0 -10.699,1.334 -14.239,4.002c-3.541,2.669 -6.081,6.158 -7.621,10.468c-1.539,4.311 -2.411,8.929 -2.617,13.855c-0.102,2.874 -0.102,5.748 0,8.621c0.206,4.926 1.078,9.545 2.617,13.855c1.54,4.311 4.08,7.8 7.621,10.468c3.54,2.669 8.287,4.003 14.239,4.003Z" style="fill:#fff;fill-rule:nonzero;"/><path d="M930.641,2669.37c-1.027,0 -1.848,-0.307 -2.463,-0.923c-0.616,-0.616 -0.924,-1.437 -0.924,-2.463l-0,-100.834c-0,-1.129 0.308,-2.001 0.924,-2.617c0.615,-0.615 1.436,-0.923 2.463,-0.923l2.771,-0c1.129,-0 2.001,0.308 2.617,0.923c0.616,0.616 0.923,1.488 0.923,2.617l0,44.952l59.423,0l-0,-44.952c-0,-1.129 0.308,-2.001 0.923,-2.617c0.616,-0.615 1.437,-0.923 2.464,-0.923l2.771,-0c1.128,-0 2.001,0.308 2.617,0.923c0.615,0.616 0.923,1.488 0.923,2.617l0,100.834c0,1.026 -0.308,1.847 -0.923,2.463c-0.616,0.616 -1.489,0.923 -2.617,0.923l-2.771,0c-1.027,0 -1.848,-0.307 -2.464,-0.923c-0.615,-0.616 -0.923,-1.437 -0.923,-2.463l-0,-46.645l-59.423,-0l0,46.645c0,1.026 -0.307,1.847 -0.923,2.463c-0.616,0.616 -1.488,0.923 -2.617,0.923l-2.771,0Z" style="fill:#fff;fill-rule:nonzero;"/><path d="M1058.11,2670.91c-9.955,-0 -17.857,-3.259 -23.707,-9.776c-5.85,-6.516 -9.185,-15.06 -10.006,-25.631c-0.103,-1.54 -0.154,-3.592 -0.154,-6.158c-0,-2.566 0.051,-4.618 0.154,-6.158c0.513,-6.978 2.155,-13.136 4.926,-18.473c2.771,-5.337 6.594,-9.493 11.469,-12.469c4.875,-2.977 10.647,-4.465 17.318,-4.465c7.184,0 13.291,1.591 18.32,4.772c5.029,3.182 8.903,7.749 11.622,13.701c2.72,5.953 4.08,13.034 4.08,21.245l-0,2.309c-0,1.026 -0.334,1.847 -1.001,2.463c-0.667,0.616 -1.513,0.924 -2.54,0.924l-54.804,-0l0,1.539c0.205,4.618 1.283,9.006 3.233,13.162c1.95,4.157 4.721,7.544 8.313,10.161c3.592,2.617 7.851,3.925 12.777,3.925c4.413,0 8.082,-0.667 11.007,-2.001c2.925,-1.334 5.26,-2.797 7.005,-4.387c1.744,-1.591 2.873,-2.797 3.387,-3.618c0.923,-1.334 1.642,-2.13 2.155,-2.386c0.513,-0.257 1.334,-0.385 2.463,-0.385l2.463,-0c0.924,-0 1.719,0.282 2.386,0.847c0.667,0.564 0.949,1.308 0.847,2.232c-0.103,1.437 -0.898,3.207 -2.386,5.311c-1.488,2.104 -3.592,4.182 -6.312,6.235c-2.72,2.052 -6.03,3.745 -9.929,5.08c-3.9,1.334 -8.262,2.001 -13.086,2.001Zm-24.323,-46.337l48.954,-0l0,-0.616c0,-5.131 -0.975,-9.75 -2.925,-13.855c-1.95,-4.105 -4.772,-7.364 -8.466,-9.775c-3.695,-2.412 -8.108,-3.618 -13.24,-3.618c-5.131,-0 -9.519,1.206 -13.162,3.618c-3.643,2.411 -6.414,5.67 -8.313,9.775c-1.898,4.105 -2.848,8.724 -2.848,13.855l0,0.616Z" style="fill:#fff;fill-rule:nonzero;"/><path d="M1129.38,2670.91c-4.926,-0 -9.467,-1.026 -13.624,-3.079c-4.156,-2.053 -7.517,-4.798 -10.083,-8.236c-2.566,-3.438 -3.849,-7.312 -3.849,-11.623c0,-6.979 2.823,-12.572 8.467,-16.78c5.645,-4.207 12.983,-6.927 22.014,-8.159l24.323,-3.386l0,-5.388c0,-5.44 -1.667,-9.725 -5.003,-12.855c-3.335,-3.13 -8.646,-4.695 -15.933,-4.695c-5.337,-0 -9.647,1.052 -12.931,3.156c-3.284,2.104 -5.542,4.849 -6.774,8.236c-0.513,1.539 -1.488,2.309 -2.925,2.309l-2.463,-0c-1.231,-0 -2.104,-0.334 -2.617,-1.001c-0.513,-0.667 -0.77,-1.462 -0.77,-2.386c0,-1.437 0.539,-3.233 1.617,-5.388c1.077,-2.155 2.745,-4.285 5.003,-6.389c2.258,-2.103 5.183,-3.874 8.775,-5.311c3.592,-1.436 7.954,-2.155 13.085,-2.155c6.055,0 11.058,0.821 15.01,2.463c3.951,1.642 7.03,3.772 9.236,6.389c2.207,2.617 3.772,5.516 4.696,8.698c0.923,3.181 1.385,6.312 1.385,9.39l0,51.264c0,1.026 -0.308,1.847 -0.924,2.463c-0.615,0.616 -1.436,0.923 -2.463,0.923l-2.617,0c-1.026,0 -1.847,-0.307 -2.463,-0.923c-0.616,-0.616 -0.924,-1.437 -0.924,-2.463l0,-7.236c-1.231,1.848 -2.976,3.695 -5.234,5.542c-2.257,1.848 -5.157,3.413 -8.697,4.696c-3.541,1.282 -7.98,1.924 -13.317,1.924Zm1.54,-8.929c4.721,0 9.031,-1.026 12.931,-3.079c3.9,-2.052 7.005,-5.208 9.314,-9.467c2.309,-4.259 3.463,-9.622 3.463,-16.087l0,-5.234l-19.858,2.77c-8.416,1.129 -14.779,3.079 -19.089,5.85c-4.311,2.771 -6.466,6.261 -6.466,10.469c0,3.386 0.975,6.157 2.925,8.313c1.95,2.155 4.439,3.771 7.466,4.849c3.028,1.077 6.132,1.616 9.314,1.616Z" style="fill:#fff;fill-rule:nonzero;"/><path d="M1189.27,2669.37c-1.027,0 -1.848,-0.307 -2.463,-0.923c-0.616,-0.616 -0.924,-1.437 -0.924,-2.463l-0,-102.527c-0,-1.026 0.308,-1.847 0.924,-2.463c0.615,-0.616 1.436,-0.924 2.463,-0.924l2.617,0c1.026,0 1.847,0.308 2.463,0.924c0.616,0.616 0.923,1.437 0.923,2.463l0,102.527c0,1.026 -0.307,1.847 -0.923,2.463c-0.616,0.616 -1.437,0.923 -2.463,0.923l-2.617,0Z" style="fill:#fff;fill-rule:nonzero;"/><path d="M1242.68,2669.37c-5.337,0 -9.544,-1.128 -12.623,-3.386c-3.079,-2.258 -5.234,-5.337 -6.466,-9.237c-1.231,-3.9 -1.847,-8.262 -1.847,-13.085l-0,-45.414l-12.008,0c-1.026,0 -1.847,-0.308 -2.463,-0.923c-0.616,-0.616 -0.924,-1.437 -0.924,-2.463l0,-2.156c0,-1.026 0.308,-1.847 0.924,-2.463c0.616,-0.615 1.437,-0.923 2.463,-0.923l12.008,-0l-0,-25.863c-0,-1.026 0.308,-1.847 0.923,-2.463c0.616,-0.616 1.437,-0.924 2.464,-0.924l2.617,0c1.026,0 1.847,0.308 2.463,0.924c0.615,0.616 0.923,1.437 0.923,2.463l0,25.863l19.089,-0c1.027,-0 1.848,0.308 2.464,0.923c0.615,0.616 0.923,1.437 0.923,2.463l0,2.156c0,1.026 -0.308,1.847 -0.923,2.463c-0.616,0.615 -1.437,0.923 -2.464,0.923l-19.089,0l0,44.798c0,5.439 0.898,9.699 2.694,12.777c1.796,3.079 5.004,4.619 9.622,4.619l8.313,-0c1.026,-0 1.847,0.308 2.463,0.923c0.616,0.616 0.924,1.437 0.924,2.464l-0,2.155c-0,1.026 -0.308,1.847 -0.924,2.463c-0.616,0.616 -1.437,0.923 -2.463,0.923l-9.083,0Z" style="fill:#fff;fill-rule:nonzero;"/><path d="M1269.93,2669.37c-1.026,0 -1.847,-0.307 -2.463,-0.923c-0.616,-0.616 -0.924,-1.437 -0.924,-2.463l0,-102.527c0,-1.026 0.308,-1.847 0.924,-2.463c0.616,-0.616 1.437,-0.924 2.463,-0.924l2.617,0c1.027,0 1.848,0.308 2.463,0.924c0.616,0.616 0.924,1.437 0.924,2.463l0,36.485c2.771,-3.592 6.132,-6.517 10.083,-8.775c3.952,-2.258 9.211,-3.387 15.78,-3.387c6.978,0 12.803,1.514 17.472,4.542c4.67,3.027 8.159,7.132 10.468,12.315c2.31,5.183 3.464,11.058 3.464,17.627l0,43.72c0,1.026 -0.308,1.847 -0.923,2.463c-0.616,0.616 -1.437,0.923 -2.464,0.923l-2.617,0c-1.026,0 -1.847,-0.307 -2.463,-0.923c-0.615,-0.616 -0.923,-1.437 -0.923,-2.463l-0,-42.951c-0,-8.21 -2.002,-14.65 -6.004,-19.32c-4.003,-4.669 -9.853,-7.004 -17.55,-7.004c-7.286,-0 -13.162,2.335 -17.626,7.004c-4.465,4.67 -6.697,11.11 -6.697,19.32l0,42.951c0,1.026 -0.308,1.847 -0.924,2.463c-0.615,0.616 -1.436,0.923 -2.463,0.923l-2.617,0Z" style="fill:#fff;fill-rule:nonzero;"/><path d="M1393.24,2669.37c-1.026,0 -1.847,-0.307 -2.463,-0.923c-0.616,-0.616 -0.923,-1.437 -0.923,-2.463l-0,-100.834c-0,-1.129 0.307,-2.001 0.923,-2.617c0.616,-0.615 1.437,-0.923 2.463,-0.923l37.409,-0c7.184,-0 13.419,1.206 18.704,3.617c5.285,2.412 9.391,5.979 12.315,10.7c2.925,4.72 4.388,10.57 4.388,17.549c-0,6.979 -1.463,12.829 -4.388,17.55c-2.924,4.721 -7.03,8.287 -12.315,10.699c-5.285,2.412 -11.52,3.618 -18.704,3.618l-31.097,-0l0,40.641c0,1.026 -0.308,1.847 -0.924,2.463c-0.615,0.616 -1.488,0.923 -2.617,0.923l-2.771,0Zm6.312,-53.264l30.327,-0c8.929,-0 15.574,-1.95 19.936,-5.85c4.362,-3.9 6.542,-9.493 6.542,-16.78c0,-7.287 -2.18,-12.88 -6.542,-16.78c-4.362,-3.9 -11.007,-5.85 -19.936,-5.85l-30.327,0l0,45.26Z" style="fill:#fff;fill-rule:nonzero;"/><path d="M1483.3,2669.37c-1.027,0 -1.848,-0.307 -2.464,-0.923c-0.615,-0.616 -0.923,-1.437 -0.923,-2.463l-0,-73.124c-0,-1.026 0.308,-1.873 0.923,-2.54c0.616,-0.667 1.437,-1 2.464,-1l2.463,-0c1.026,-0 1.873,0.333 2.54,1c0.667,0.667 1,1.514 1,2.54l0,7.082c1.848,-3.592 4.516,-6.261 8.005,-8.005c3.49,-1.745 7.8,-2.617 12.932,-2.617l5.696,-0c1.026,-0 1.847,0.308 2.463,0.923c0.616,0.616 0.923,1.437 0.923,2.463l0,2.156c0,1.026 -0.307,1.847 -0.923,2.463c-0.616,0.615 -1.437,0.923 -2.463,0.923l-6.62,0c-6.158,0 -11.033,1.796 -14.625,5.388c-3.592,3.592 -5.388,8.467 -5.388,14.625l0,47.723c0,1.026 -0.333,1.847 -1,2.463c-0.667,0.616 -1.514,0.923 -2.54,0.923l-2.463,0Z" style="fill:#fff;fill-rule:nonzero;"/><path d="M1557.5,2670.91c-7.39,-0 -13.573,-1.54 -18.551,-4.618c-4.977,-3.079 -8.774,-7.287 -11.392,-12.624c-2.617,-5.337 -4.028,-11.289 -4.233,-17.857c-0.103,-1.54 -0.154,-3.695 -0.154,-6.466c0,-2.771 0.051,-4.926 0.154,-6.466c0.205,-6.67 1.616,-12.649 4.233,-17.934c2.618,-5.285 6.415,-9.468 11.392,-12.546c4.978,-3.079 11.161,-4.619 18.551,-4.619c7.389,0 13.572,1.54 18.55,4.619c4.977,3.078 8.775,7.261 11.392,12.546c2.617,5.285 4.028,11.264 4.233,17.934c0.103,1.54 0.154,3.695 0.154,6.466c0,2.771 -0.051,4.926 -0.154,6.466c-0.205,6.568 -1.616,12.52 -4.233,17.857c-2.617,5.337 -6.415,9.545 -11.392,12.624c-4.978,3.078 -11.161,4.618 -18.55,4.618Zm-0,-8.929c7.184,0 13.034,-2.309 17.549,-6.927c4.516,-4.619 6.928,-11.29 7.236,-20.013c0.102,-1.539 0.154,-3.438 0.154,-5.696c-0,-2.258 -0.052,-4.156 -0.154,-5.696c-0.308,-8.826 -2.72,-15.523 -7.236,-20.09c-4.515,-4.567 -10.365,-6.85 -17.549,-6.85c-7.184,-0 -13.034,2.283 -17.55,6.85c-4.516,4.567 -6.927,11.264 -7.235,20.09c-0.103,1.54 -0.154,3.438 -0.154,5.696c-0,2.258 0.051,4.157 0.154,5.696c0.308,8.723 2.719,15.394 7.235,20.013c4.516,4.618 10.366,6.927 17.55,6.927Z" style="fill:#fff;fill-rule:nonzero;"/><path d="M1618.15,2669.37c-1.027,0 -1.848,-0.307 -2.464,-0.923c-0.615,-0.616 -0.923,-1.437 -0.923,-2.463l-0,-67.736l-13.701,0c-1.027,0 -1.848,-0.308 -2.463,-0.923c-0.616,-0.616 -0.924,-1.437 -0.924,-2.463l-0,-2.156c-0,-1.026 0.308,-1.847 0.924,-2.463c0.615,-0.615 1.436,-0.923 2.463,-0.923l13.701,-0l-0,-8.775c-0,-4.618 0.641,-8.826 1.924,-12.624c1.283,-3.797 3.592,-6.824 6.928,-9.082c3.335,-2.258 8.133,-3.387 14.393,-3.387l8.005,-0c1.027,-0 1.848,0.308 2.463,0.924c0.616,0.615 0.924,1.436 0.924,2.463l0,2.155c0,1.026 -0.308,1.847 -0.924,2.463c-0.615,0.616 -1.436,0.924 -2.463,0.924l-8.005,-0c-5.439,-0 -9.108,1.462 -11.007,4.387c-1.898,2.925 -2.848,7.107 -2.848,12.547l0,8.005l20.321,-0c1.026,-0 1.847,0.308 2.463,0.923c0.616,0.616 0.924,1.437 0.924,2.463l-0,2.156c-0,1.026 -0.308,1.847 -0.924,2.463c-0.616,0.615 -1.437,0.923 -2.463,0.923l-20.321,0l0,67.736c0,1.026 -0.308,1.847 -0.923,2.463c-0.616,0.616 -1.437,0.923 -2.463,0.923l-2.617,0Z" style="fill:#fff;fill-rule:nonzero;"/><path d="M1686.04,2670.91c-9.955,-0 -17.858,-3.259 -23.708,-9.776c-5.849,-6.516 -9.185,-15.06 -10.006,-25.631c-0.103,-1.54 -0.154,-3.592 -0.154,-6.158c0,-2.566 0.051,-4.618 0.154,-6.158c0.513,-6.978 2.155,-13.136 4.926,-18.473c2.771,-5.337 6.594,-9.493 11.469,-12.469c4.875,-2.977 10.648,-4.465 17.319,-4.465c7.184,0 13.29,1.591 18.319,4.772c5.029,3.182 8.903,7.749 11.623,13.701c2.72,5.953 4.079,13.034 4.079,21.245l0,2.309c0,1.026 -0.333,1.847 -1,2.463c-0.667,0.616 -1.514,0.924 -2.54,0.924l-54.804,-0l-0,1.539c0.205,4.618 1.283,9.006 3.232,13.162c1.95,4.157 4.721,7.544 8.313,10.161c3.592,2.617 7.852,3.925 12.778,3.925c4.413,0 8.082,-0.667 11.007,-2.001c2.925,-1.334 5.26,-2.797 7.004,-4.387c1.745,-1.591 2.874,-2.797 3.387,-3.618c0.924,-1.334 1.642,-2.13 2.155,-2.386c0.513,-0.257 1.334,-0.385 2.463,-0.385l2.463,-0c0.924,-0 1.719,0.282 2.387,0.847c0.667,0.564 0.949,1.308 0.846,2.232c-0.102,1.437 -0.898,3.207 -2.386,5.311c-1.488,2.104 -3.592,4.182 -6.312,6.235c-2.719,2.052 -6.029,3.745 -9.929,5.08c-3.9,1.334 -8.262,2.001 -13.085,2.001Zm-24.323,-46.337l48.954,-0l-0,-0.616c-0,-5.131 -0.975,-9.75 -2.925,-13.855c-1.95,-4.105 -4.772,-7.364 -8.467,-9.775c-3.695,-2.412 -8.108,-3.618 -13.239,-3.618c-5.132,-0 -9.519,1.206 -13.162,3.618c-3.644,2.411 -6.415,5.67 -8.313,9.775c-1.899,4.105 -2.848,8.724 -2.848,13.855l-0,0.616Z" style="fill:#fff;fill-rule:nonzero;"/><path d="M1761.17,2670.91c-5.336,-0 -9.929,-0.718 -13.778,-2.155c-3.848,-1.437 -7.004,-3.156 -9.467,-5.157c-2.463,-2.002 -4.285,-3.977 -5.465,-5.927c-1.18,-1.95 -1.822,-3.438 -1.924,-4.465c-0.103,-1.129 0.256,-1.975 1.077,-2.54c0.821,-0.564 1.591,-0.846 2.309,-0.846l2.31,-0c0.615,-0 1.154,0.102 1.616,0.307c0.462,0.206 1.052,0.77 1.77,1.694c1.334,1.745 2.874,3.412 4.619,5.003c1.744,1.591 3.977,2.848 6.696,3.772c2.72,0.923 6.132,1.385 10.237,1.385c6.158,0 11.238,-1.18 15.241,-3.541c4.002,-2.36 6.004,-5.849 6.004,-10.468c-0,-2.873 -0.796,-5.182 -2.386,-6.927c-1.591,-1.745 -4.285,-3.284 -8.082,-4.619c-3.798,-1.334 -8.929,-2.719 -15.395,-4.156c-6.465,-1.539 -11.417,-3.387 -14.855,-5.542c-3.439,-2.155 -5.773,-4.644 -7.005,-7.466c-1.231,-2.823 -1.847,-5.876 -1.847,-9.16c-0,-3.592 1.026,-7.107 3.079,-10.545c2.052,-3.438 5.105,-6.26 9.159,-8.467c4.054,-2.207 9.16,-3.31 15.318,-3.31c5.029,0 9.313,0.667 12.854,2.001c3.541,1.335 6.44,2.951 8.698,4.85c2.258,1.898 3.925,3.771 5.003,5.619c1.078,1.847 1.668,3.335 1.77,4.464c0.103,1.026 -0.205,1.847 -0.923,2.463c-0.719,0.616 -1.54,0.924 -2.463,0.924l-2.309,-0c-0.822,-0 -1.489,-0.18 -2.002,-0.539c-0.513,-0.359 -0.975,-0.847 -1.385,-1.462c-1.027,-1.643 -2.258,-3.182 -3.695,-4.619c-1.437,-1.437 -3.361,-2.591 -5.773,-3.464c-2.412,-0.872 -5.67,-1.308 -9.775,-1.308c-6.158,-0 -10.725,1.257 -13.701,3.772c-2.977,2.514 -4.465,5.721 -4.465,9.621c0,2.258 0.616,4.234 1.848,5.927c1.231,1.693 3.54,3.233 6.927,4.618c3.387,1.386 8.313,2.848 14.779,4.388c6.568,1.436 11.751,3.207 15.548,5.311c3.797,2.104 6.491,4.592 8.082,7.466c1.591,2.874 2.386,6.26 2.386,10.16c0,4.105 -1.154,7.903 -3.463,11.392c-2.31,3.49 -5.748,6.286 -10.315,8.39c-4.567,2.104 -10.186,3.156 -16.857,3.156Z" style="fill:#fff;fill-rule:nonzero;"/><path d="M1832.29,2670.91c-5.337,-0 -9.93,-0.718 -13.778,-2.155c-3.849,-1.437 -7.005,-3.156 -9.468,-5.157c-2.463,-2.002 -4.285,-3.977 -5.465,-5.927c-1.18,-1.95 -1.822,-3.438 -1.924,-4.465c-0.103,-1.129 0.256,-1.975 1.077,-2.54c0.821,-0.564 1.591,-0.846 2.31,-0.846l2.309,-0c0.615,-0 1.154,0.102 1.616,0.307c0.462,0.206 1.052,0.77 1.77,1.694c1.335,1.745 2.874,3.412 4.619,5.003c1.744,1.591 3.977,2.848 6.696,3.772c2.72,0.923 6.132,1.385 10.238,1.385c6.157,0 11.237,-1.18 15.24,-3.541c4.003,-2.36 6.004,-5.849 6.004,-10.468c-0,-2.873 -0.796,-5.182 -2.386,-6.927c-1.591,-1.745 -4.285,-3.284 -8.082,-4.619c-3.798,-1.334 -8.929,-2.719 -15.395,-4.156c-6.465,-1.539 -11.417,-3.387 -14.855,-5.542c-3.438,-2.155 -5.773,-4.644 -7.005,-7.466c-1.231,-2.823 -1.847,-5.876 -1.847,-9.16c-0,-3.592 1.026,-7.107 3.079,-10.545c2.052,-3.438 5.106,-6.26 9.159,-8.467c4.054,-2.207 9.16,-3.31 15.318,-3.31c5.029,0 9.313,0.667 12.854,2.001c3.541,1.335 6.44,2.951 8.698,4.85c2.258,1.898 3.926,3.771 5.003,5.619c1.078,1.847 1.668,3.335 1.771,4.464c0.102,1.026 -0.206,1.847 -0.924,2.463c-0.719,0.616 -1.54,0.924 -2.463,0.924l-2.309,-0c-0.821,-0 -1.488,-0.18 -2.002,-0.539c-0.513,-0.359 -0.975,-0.847 -1.385,-1.462c-1.026,-1.643 -2.258,-3.182 -3.695,-4.619c-1.437,-1.437 -3.361,-2.591 -5.773,-3.464c-2.411,-0.872 -5.67,-1.308 -9.775,-1.308c-6.158,-0 -10.725,1.257 -13.701,3.772c-2.976,2.514 -4.465,5.721 -4.465,9.621c0,2.258 0.616,4.234 1.848,5.927c1.231,1.693 3.541,3.233 6.927,4.618c3.387,1.386 8.313,2.848 14.779,4.388c6.568,1.436 11.751,3.207 15.548,5.311c3.798,2.104 6.492,4.592 8.082,7.466c1.591,2.874 2.386,6.26 2.386,10.16c0,4.105 -1.154,7.903 -3.463,11.392c-2.309,3.49 -5.748,6.286 -10.315,8.39c-4.567,2.104 -10.186,3.156 -16.856,3.156Z" style="fill:#fff;fill-rule:nonzero;"/><path d="M1881.4,2669.37c-1.027,0 -1.848,-0.307 -2.463,-0.923c-0.616,-0.616 -0.924,-1.437 -0.924,-2.463l-0,-73.278c-0,-1.026 0.308,-1.847 0.924,-2.463c0.615,-0.615 1.436,-0.923 2.463,-0.923l2.617,-0c1.026,-0 1.847,0.308 2.463,0.923c0.616,0.616 0.924,1.437 0.924,2.463l-0,73.278c-0,1.026 -0.308,1.847 -0.924,2.463c-0.616,0.616 -1.437,0.923 -2.463,0.923l-2.617,0Zm-1.694,-96.522c-1.026,-0 -1.847,-0.308 -2.463,-0.924c-0.616,-0.616 -0.923,-1.437 -0.923,-2.463l-0,-5.85c-0,-1.026 0.307,-1.873 0.923,-2.54c0.616,-0.667 1.437,-1.001 2.463,-1.001l5.85,0c1.026,0 1.873,0.334 2.54,1.001c0.667,0.667 1.001,1.514 1.001,2.54l-0,5.85c-0,1.026 -0.334,1.847 -1.001,2.463c-0.667,0.616 -1.514,0.924 -2.54,0.924l-5.85,-0Z" style="fill:#fff;fill-rule:nonzero;"/><path d="M1938.2,2670.91c-7.389,-0 -13.573,-1.54 -18.55,-4.618c-4.978,-3.079 -8.775,-7.287 -11.392,-12.624c-2.617,-5.337 -4.028,-11.289 -4.234,-17.857c-0.102,-1.54 -0.153,-3.695 -0.153,-6.466c-0,-2.771 0.051,-4.926 0.153,-6.466c0.206,-6.67 1.617,-12.649 4.234,-17.934c2.617,-5.285 6.414,-9.468 11.392,-12.546c4.977,-3.079 11.161,-4.619 18.55,-4.619c7.389,0 13.573,1.54 18.55,4.619c4.978,3.078 8.775,7.261 11.392,12.546c2.617,5.285 4.028,11.264 4.234,17.934c0.102,1.54 0.154,3.695 0.154,6.466c-0,2.771 -0.052,4.926 -0.154,6.466c-0.206,6.568 -1.617,12.52 -4.234,17.857c-2.617,5.337 -6.414,9.545 -11.392,12.624c-4.977,3.078 -11.161,4.618 -18.55,4.618Zm0,-8.929c7.184,0 13.034,-2.309 17.55,-6.927c4.515,-4.619 6.927,-11.29 7.235,-20.013c0.103,-1.539 0.154,-3.438 0.154,-5.696c-0,-2.258 -0.051,-4.156 -0.154,-5.696c-0.308,-8.826 -2.72,-15.523 -7.235,-20.09c-4.516,-4.567 -10.366,-6.85 -17.55,-6.85c-7.184,-0 -13.034,2.283 -17.55,6.85c-4.515,4.567 -6.927,11.264 -7.235,20.09c-0.103,1.54 -0.154,3.438 -0.154,5.696c0,2.258 0.051,4.157 0.154,5.696c0.308,8.723 2.72,15.394 7.235,20.013c4.516,4.618 10.366,6.927 17.55,6.927Z" style="fill:#fff;fill-rule:nonzero;"/><path d="M1992.39,2669.37c-1.026,0 -1.847,-0.307 -2.463,-0.923c-0.616,-0.616 -0.923,-1.437 -0.923,-2.463l-0,-73.278c-0,-1.026 0.307,-1.847 0.923,-2.463c0.616,-0.615 1.437,-0.923 2.463,-0.923l2.617,-0c1.027,-0 1.848,0.308 2.463,0.923c0.616,0.616 0.924,1.437 0.924,2.463l0,7.236c2.771,-3.592 6.132,-6.517 10.083,-8.775c3.952,-2.258 9.211,-3.387 15.78,-3.387c6.979,0 12.803,1.514 17.472,4.542c4.67,3.027 8.159,7.132 10.469,12.315c2.309,5.183 3.463,11.058 3.463,17.627l0,43.72c0,1.026 -0.308,1.847 -0.923,2.463c-0.616,0.616 -1.437,0.923 -2.463,0.923l-2.618,0c-1.026,0 -1.847,-0.307 -2.463,-0.923c-0.615,-0.616 -0.923,-1.437 -0.923,-2.463l-0,-42.951c-0,-8.21 -2.002,-14.65 -6.004,-19.32c-4.003,-4.669 -9.853,-7.004 -17.55,-7.004c-7.286,-0 -13.162,2.335 -17.626,7.004c-4.465,4.67 -6.697,11.11 -6.697,19.32l0,42.951c0,1.026 -0.308,1.847 -0.924,2.463c-0.615,0.616 -1.436,0.923 -2.463,0.923l-2.617,0Z" style="fill:#fff;fill-rule:nonzero;"/><path d="M2100.62,2670.91c-5.337,-0 -9.929,-0.718 -13.778,-2.155c-3.849,-1.437 -7.004,-3.156 -9.468,-5.157c-2.463,-2.002 -4.284,-3.977 -5.465,-5.927c-1.18,-1.95 -1.821,-3.438 -1.924,-4.465c-0.103,-1.129 0.257,-1.975 1.078,-2.54c0.821,-0.564 1.59,-0.846 2.309,-0.846l2.309,-0c0.616,-0 1.155,0.102 1.616,0.307c0.462,0.206 1.052,0.77 1.771,1.694c1.334,1.745 2.873,3.412 4.618,5.003c1.745,1.591 3.977,2.848 6.697,3.772c2.719,0.923 6.132,1.385 10.237,1.385c6.158,0 11.238,-1.18 15.24,-3.541c4.003,-2.36 6.004,-5.849 6.004,-10.468c0,-2.873 -0.795,-5.182 -2.386,-6.927c-1.591,-1.745 -4.285,-3.284 -8.082,-4.619c-3.797,-1.334 -8.929,-2.719 -15.394,-4.156c-6.466,-1.539 -11.418,-3.387 -14.856,-5.542c-3.438,-2.155 -5.773,-4.644 -7.004,-7.466c-1.232,-2.823 -1.848,-5.876 -1.848,-9.16c0,-3.592 1.027,-7.107 3.079,-10.545c2.053,-3.438 5.106,-6.26 9.16,-8.467c4.054,-2.207 9.159,-3.31 15.317,-3.31c5.029,0 9.314,0.667 12.855,2.001c3.54,1.335 6.44,2.951 8.697,4.85c2.258,1.898 3.926,3.771 5.004,5.619c1.077,1.847 1.667,3.335 1.77,4.464c0.103,1.026 -0.205,1.847 -0.924,2.463c-0.718,0.616 -1.539,0.924 -2.463,0.924l-2.309,-0c-0.821,-0 -1.488,-0.18 -2.001,-0.539c-0.513,-0.359 -0.975,-0.847 -1.386,-1.462c-1.026,-1.643 -2.258,-3.182 -3.694,-4.619c-1.437,-1.437 -3.362,-2.591 -5.773,-3.464c-2.412,-0.872 -5.671,-1.308 -9.776,-1.308c-6.158,-0 -10.725,1.257 -13.701,3.772c-2.976,2.514 -4.464,5.721 -4.464,9.621c-0,2.258 0.616,4.234 1.847,5.927c1.232,1.693 3.541,3.233 6.928,4.618c3.386,1.386 8.313,2.848 14.778,4.388c6.569,1.436 11.751,3.207 15.549,5.311c3.797,2.104 6.491,4.592 8.082,7.466c1.59,2.874 2.386,6.26 2.386,10.16c-0,4.105 -1.155,7.903 -3.464,11.392c-2.309,3.49 -5.747,6.286 -10.314,8.39c-4.567,2.104 -10.186,3.156 -16.857,3.156Z" style="fill:#fff;fill-rule:nonzero;"/><path d="M860.442,2827.92c-1.026,-0 -1.847,-0.308 -2.463,-0.924c-0.616,-0.616 -0.923,-1.437 -0.923,-2.463l-0,-100.833c-0,-1.129 0.307,-2.002 0.923,-2.617c0.616,-0.616 1.437,-0.924 2.463,-0.924l60.038,-0c1.129,-0 2.002,0.308 2.617,0.924c0.616,0.615 0.924,1.488 0.924,2.617l0,2.309c0,1.026 -0.308,1.847 -0.924,2.463c-0.615,0.616 -1.488,0.924 -2.617,0.924l-53.726,-0l-0,39.255l50.34,0c1.129,0 2.001,0.308 2.617,0.924c0.615,0.616 0.923,1.488 0.923,2.617l0,2.309c0,1.026 -0.308,1.848 -0.923,2.463c-0.616,0.616 -1.488,0.924 -2.617,0.924l-50.34,-0l-0,40.795l54.958,0c1.129,0 2.001,0.308 2.617,0.924c0.616,0.616 0.924,1.488 0.924,2.617l-0,2.309c-0,1.026 -0.308,1.847 -0.924,2.463c-0.616,0.616 -1.488,0.924 -2.617,0.924l-61.27,-0Z" style="fill:#fff;fill-rule:nonzero;"/><path d="M969.435,2829.46c-5.953,0 -11.007,-1.077 -15.164,-3.233c-4.156,-2.155 -7.517,-5.028 -10.083,-8.62c-2.566,-3.593 -4.439,-7.595 -5.619,-12.008c-1.18,-4.413 -1.873,-8.878 -2.078,-13.393c-0.103,-1.54 -0.154,-2.976 -0.154,-4.311c-0,-1.334 0.051,-2.771 0.154,-4.31c0.205,-4.516 0.898,-8.98 2.078,-13.393c1.18,-4.413 3.053,-8.416 5.619,-12.008c2.566,-3.592 5.927,-6.466 10.083,-8.621c4.157,-2.155 9.211,-3.233 15.164,-3.233c6.363,0 11.622,1.181 15.779,3.541c4.156,2.361 7.517,5.234 10.083,8.621l0,-36.485c0,-1.026 0.308,-1.847 0.924,-2.463c0.616,-0.616 1.437,-0.923 2.463,-0.923l2.617,-0c1.026,-0 1.847,0.307 2.463,0.923c0.616,0.616 0.924,1.437 0.924,2.463l-0,102.527c-0,1.026 -0.308,1.847 -0.924,2.463c-0.616,0.616 -1.437,0.924 -2.463,0.924l-2.617,-0c-1.026,-0 -1.847,-0.308 -2.463,-0.924c-0.616,-0.616 -0.924,-1.437 -0.924,-2.463l0,-7.235c-2.566,3.489 -5.927,6.388 -10.083,8.697c-4.157,2.31 -9.416,3.464 -15.779,3.464Zm0.923,-8.929c5.85,0 10.571,-1.385 14.163,-4.156c3.592,-2.771 6.261,-6.235 8.005,-10.391c1.745,-4.157 2.669,-8.339 2.771,-12.547c0.103,-1.539 0.154,-3.54 0.154,-6.004c0,-2.463 -0.051,-4.464 -0.154,-6.003c-0.102,-4.105 -1.052,-8.159 -2.848,-12.162c-1.796,-4.002 -4.49,-7.338 -8.082,-10.006c-3.592,-2.669 -8.261,-4.003 -14.009,-4.003c-5.952,0 -10.699,1.334 -14.24,4.003c-3.54,2.668 -6.08,6.158 -7.62,10.468c-1.539,4.31 -2.412,8.929 -2.617,13.855c-0.102,2.874 -0.102,5.747 0,8.621c0.205,4.926 1.078,9.544 2.617,13.855c1.54,4.31 4.08,7.8 7.62,10.468c3.541,2.668 8.288,4.002 14.24,4.002Z" style="fill:#fff;fill-rule:nonzero;"/><path d="M1055.18,2829.46c-6.978,0 -12.751,-1.514 -17.318,-4.541c-4.567,-3.028 -7.954,-7.159 -10.161,-12.393c-2.206,-5.234 -3.309,-11.084 -3.309,-17.549l-0,-43.72c-0,-1.027 0.307,-1.848 0.923,-2.463c0.616,-0.616 1.437,-0.924 2.463,-0.924l2.617,-0c1.027,-0 1.848,0.308 2.464,0.924c0.615,0.615 0.923,1.436 0.923,2.463l0,42.95c0,17.55 7.646,26.324 22.938,26.324c7.287,0 13.136,-2.334 17.549,-7.004c4.414,-4.67 6.62,-11.11 6.62,-19.32l0,-42.95c0,-1.027 0.308,-1.848 0.924,-2.463c0.615,-0.616 1.437,-0.924 2.463,-0.924l2.617,-0c1.026,-0 1.847,0.308 2.463,0.924c0.616,0.615 0.924,1.436 0.924,2.463l-0,73.277c-0,1.026 -0.308,1.847 -0.924,2.463c-0.616,0.616 -1.437,0.924 -2.463,0.924l-2.617,-0c-1.026,-0 -1.848,-0.308 -2.463,-0.924c-0.616,-0.616 -0.924,-1.437 -0.924,-2.463l0,-7.235c-2.771,3.592 -6.081,6.517 -9.929,8.774c-3.849,2.258 -9.109,3.387 -15.78,3.387Z" style="fill:#fff;fill-rule:nonzero;"/><path d="M1140.93,2829.46c-7.184,0 -13.29,-1.411 -18.319,-4.233c-5.029,-2.823 -8.852,-6.902 -11.469,-12.239c-2.617,-5.337 -4.028,-11.648 -4.233,-18.935c-0.103,-1.539 -0.154,-3.592 -0.154,-6.158c-0,-2.565 0.051,-4.618 0.154,-6.157c0.205,-7.39 1.616,-13.727 4.233,-19.013c2.617,-5.285 6.44,-9.339 11.469,-12.161c5.029,-2.822 11.135,-4.234 18.319,-4.234c5.44,0 10.135,0.745 14.086,2.233c3.951,1.488 7.21,3.438 9.776,5.85c2.565,2.411 4.515,5.054 5.849,7.928c1.335,2.873 2.053,5.696 2.156,8.467c0.102,1.026 -0.206,1.847 -0.924,2.463c-0.718,0.615 -1.54,0.923 -2.463,0.923l-2.155,0c-1.027,0 -1.771,-0.231 -2.233,-0.692c-0.461,-0.462 -0.949,-1.309 -1.462,-2.541c-2.155,-5.849 -5.106,-9.929 -8.852,-12.238c-3.746,-2.309 -8.338,-3.464 -13.778,-3.464c-6.979,0 -12.751,2.13 -17.319,6.389c-4.567,4.259 -7.004,11.212 -7.312,20.859c-0.205,3.592 -0.205,7.184 0,10.776c0.308,9.648 2.745,16.601 7.312,20.86c4.568,4.259 10.34,6.388 17.319,6.388c5.44,0 10.032,-1.154 13.778,-3.463c3.746,-2.309 6.697,-6.389 8.852,-12.239c0.513,-1.231 1.001,-2.078 1.462,-2.54c0.462,-0.462 1.206,-0.693 2.233,-0.693l2.155,0c0.923,0 1.745,0.308 2.463,0.924c0.718,0.616 1.026,1.437 0.924,2.463c-0.103,2.258 -0.565,4.516 -1.386,6.774c-0.821,2.257 -2.078,4.464 -3.772,6.619c-1.693,2.155 -3.771,4.054 -6.234,5.696c-2.463,1.642 -5.414,2.951 -8.852,3.926c-3.438,0.975 -7.312,1.462 -11.623,1.462Z" style="fill:#fff;fill-rule:nonzero;"/><path d="M1210.05,2829.46c-4.926,0 -9.468,-1.026 -13.624,-3.079c-4.156,-2.052 -7.518,-4.798 -10.083,-8.236c-2.566,-3.438 -3.849,-7.312 -3.849,-11.622c0,-6.979 2.822,-12.573 8.467,-16.78c5.645,-4.208 12.983,-6.928 22.014,-8.159l24.323,-3.387l0,-5.388c0,-5.44 -1.668,-9.724 -5.003,-12.855c-3.336,-3.13 -8.647,-4.695 -15.933,-4.695c-5.337,0 -9.647,1.052 -12.932,3.156c-3.284,2.104 -5.542,4.849 -6.773,8.236c-0.513,1.539 -1.488,2.309 -2.925,2.309l-2.463,0c-1.232,0 -2.104,-0.333 -2.617,-1c-0.513,-0.668 -0.77,-1.463 -0.77,-2.387c0,-1.436 0.539,-3.232 1.617,-5.388c1.077,-2.155 2.745,-4.284 5.003,-6.388c2.258,-2.104 5.182,-3.875 8.775,-5.311c3.592,-1.437 7.953,-2.156 13.085,-2.156c6.055,0 11.058,0.821 15.009,2.464c3.952,1.642 7.03,3.771 9.237,6.388c2.206,2.617 3.772,5.517 4.695,8.698c0.924,3.182 1.386,6.312 1.386,9.391l-0,51.263c-0,1.026 -0.308,1.847 -0.924,2.463c-0.616,0.616 -1.437,0.924 -2.463,0.924l-2.617,-0c-1.026,-0 -1.847,-0.308 -2.463,-0.924c-0.616,-0.616 -0.924,-1.437 -0.924,-2.463l0,-7.235c-1.231,1.847 -2.976,3.694 -5.234,5.542c-2.258,1.847 -5.157,3.412 -8.698,4.695c-3.541,1.283 -7.979,1.924 -13.316,1.924Zm1.539,-8.929c4.721,0 9.032,-1.026 12.932,-3.078c3.9,-2.053 7.004,-5.209 9.313,-9.468c2.31,-4.259 3.464,-9.621 3.464,-16.087l0,-5.234l-19.859,2.771c-8.415,1.129 -14.778,3.079 -19.089,5.85c-4.31,2.771 -6.465,6.26 -6.465,10.468c-0,3.387 0.975,6.158 2.925,8.313c1.95,2.155 4.438,3.771 7.466,4.849c3.027,1.078 6.132,1.616 9.313,1.616Z" style="fill:#fff;fill-rule:nonzero;"/><path d="M1292.56,2827.92c-5.337,-0 -9.545,-1.129 -12.623,-3.387c-3.079,-2.258 -5.234,-5.337 -6.466,-9.237c-1.232,-3.9 -1.847,-8.261 -1.847,-13.085l-0,-45.413l-12.008,-0c-1.026,-0 -1.847,-0.308 -2.463,-0.924c-0.616,-0.616 -0.924,-1.437 -0.924,-2.463l0,-2.155c0,-1.027 0.308,-1.848 0.924,-2.463c0.616,-0.616 1.437,-0.924 2.463,-0.924l12.008,-0l-0,-25.863c-0,-1.026 0.308,-1.847 0.923,-2.463c0.616,-0.616 1.437,-0.923 2.463,-0.923l2.617,-0c1.027,-0 1.848,0.307 2.464,0.923c0.615,0.616 0.923,1.437 0.923,2.463l0,25.863l19.089,-0c1.027,-0 1.848,0.308 2.463,0.924c0.616,0.615 0.924,1.436 0.924,2.463l0,2.155c0,1.026 -0.308,1.847 -0.924,2.463c-0.615,0.616 -1.436,0.924 -2.463,0.924l-19.089,-0l0,44.797c0,5.44 0.898,9.699 2.694,12.778c1.796,3.079 5.003,4.618 9.622,4.618l8.313,0c1.026,0 1.847,0.308 2.463,0.924c0.616,0.615 0.923,1.436 0.923,2.463l0,2.155c0,1.026 -0.307,1.847 -0.923,2.463c-0.616,0.616 -1.437,0.924 -2.463,0.924l-9.083,-0Z" style="fill:#fff;fill-rule:nonzero;"/><path d="M1319.66,2827.92c-1.026,-0 -1.847,-0.308 -2.463,-0.924c-0.616,-0.616 -0.924,-1.437 -0.924,-2.463l0,-73.277c0,-1.027 0.308,-1.848 0.924,-2.463c0.616,-0.616 1.437,-0.924 2.463,-0.924l2.617,-0c1.026,-0 1.848,0.308 2.463,0.924c0.616,0.615 0.924,1.436 0.924,2.463l-0,73.277c-0,1.026 -0.308,1.847 -0.924,2.463c-0.615,0.616 -1.437,0.924 -2.463,0.924l-2.617,-0Zm-1.693,-96.523c-1.027,-0 -1.848,-0.308 -2.463,-0.924c-0.616,-0.616 -0.924,-1.437 -0.924,-2.463l0,-5.85c0,-1.026 0.308,-1.873 0.924,-2.54c0.615,-0.667 1.436,-1 2.463,-1l5.85,-0c1.026,-0 1.873,0.333 2.54,1c0.667,0.667 1,1.514 1,2.54l0,5.85c0,1.026 -0.333,1.847 -1,2.463c-0.667,0.616 -1.514,0.924 -2.54,0.924l-5.85,-0Z" style="fill:#fff;fill-rule:nonzero;"/><path d="M1376.46,2829.46c-7.389,0 -13.572,-1.539 -18.55,-4.618c-4.977,-3.079 -8.775,-7.287 -11.392,-12.624c-2.617,-5.336 -4.028,-11.289 -4.233,-17.857c-0.103,-1.539 -0.154,-3.695 -0.154,-6.466c-0,-2.771 0.051,-4.926 0.154,-6.465c0.205,-6.671 1.616,-12.649 4.233,-17.935c2.617,-5.285 6.415,-9.467 11.392,-12.546c4.978,-3.079 11.161,-4.619 18.55,-4.619c7.39,0 13.573,1.54 18.551,4.619c4.977,3.079 8.775,7.261 11.392,12.546c2.617,5.286 4.028,11.264 4.233,17.935c0.103,1.539 0.154,3.694 0.154,6.465c-0,2.771 -0.051,4.927 -0.154,6.466c-0.205,6.568 -1.616,12.521 -4.233,17.857c-2.617,5.337 -6.415,9.545 -11.392,12.624c-4.978,3.079 -11.161,4.618 -18.551,4.618Zm0,-8.929c7.185,0 13.034,-2.309 17.55,-6.927c4.516,-4.618 6.928,-11.289 7.235,-20.013c0.103,-1.539 0.154,-3.438 0.154,-5.696c0,-2.258 -0.051,-4.156 -0.154,-5.696c-0.307,-8.826 -2.719,-15.522 -7.235,-20.089c-4.516,-4.567 -10.365,-6.851 -17.55,-6.851c-7.184,0 -13.033,2.284 -17.549,6.851c-4.516,4.567 -6.928,11.263 -7.236,20.089c-0.102,1.54 -0.153,3.438 -0.153,5.696c-0,2.258 0.051,4.157 0.153,5.696c0.308,8.724 2.72,15.395 7.236,20.013c4.516,4.618 10.365,6.927 17.549,6.927Z" style="fill:#fff;fill-rule:nonzero;"/><path d="M1430.65,2827.92c-1.027,-0 -1.848,-0.308 -2.463,-0.924c-0.616,-0.616 -0.924,-1.437 -0.924,-2.463l-0,-73.277c-0,-1.027 0.308,-1.848 0.924,-2.463c0.615,-0.616 1.436,-0.924 2.463,-0.924l2.617,-0c1.026,-0 1.847,0.308 2.463,0.924c0.616,0.615 0.924,1.436 0.924,2.463l-0,7.235c2.771,-3.592 6.132,-6.517 10.083,-8.775c3.951,-2.258 9.211,-3.387 15.779,-3.387c6.979,0 12.803,1.514 17.473,4.542c4.669,3.027 8.159,7.133 10.468,12.315c2.309,5.183 3.464,11.059 3.464,17.627l-0,43.72c-0,1.026 -0.308,1.847 -0.924,2.463c-0.616,0.616 -1.437,0.924 -2.463,0.924l-2.617,-0c-1.026,-0 -1.847,-0.308 -2.463,-0.924c-0.616,-0.616 -0.924,-1.437 -0.924,-2.463l0,-42.95c0,-8.211 -2.001,-14.651 -6.004,-19.32c-4.002,-4.67 -9.852,-7.005 -17.549,-7.005c-7.287,0 -13.162,2.335 -17.627,7.005c-4.464,4.669 -6.696,11.109 -6.696,19.32l-0,42.95c-0,1.026 -0.308,1.847 -0.924,2.463c-0.616,0.616 -1.437,0.924 -2.463,0.924l-2.617,-0Z" style="fill:#fff;fill-rule:nonzero;"/></g><defs><linearGradient id="_Linear1" x1="0" y1="0" x2="1" y2="0" gradientUnits="userSpaceOnUse" gradientTransform="matrix(71.2351,-2959.48,-715.489,-17.2219,572.311,3160.3)"><stop offset="0" style="stop-color:#00f275;stop-opacity:0.67"/><stop offset="0.1" style="stop-color:#27f7a7;stop-opacity:0.67"/><stop offset="0.2" style="stop-color:#50fcdc;stop-opacity:0.67"/><stop offset="0.47" style="stop-color:#64fff5;stop-opacity:0.67"/><stop offset="0.74" style="stop-color:#66ecf7;stop-opacity:0.67"/><stop offset="1" style="stop-color:#6bb3ff;stop-opacity:0.67"/></linearGradient></defs></svg>